TITLE ""
FILE "LR_black_phrase_05.mp3" MP3
  TRACK 01 AUDIO
    TITLE "LR_black_phrase_05_0001"
    INDEX 01 00:00:00
  TRACK 02 AUDIO
    TITLE "LR_black_phrase_05_0002"
    INDEX 01 00:00:14
  TRACK 03 AUDIO
    TITLE "LR_black_phrase_05_0003"
    INDEX 01 00:01:45
  TRACK 04 AUDIO
    TITLE "LR_black_phrase_05_0004"
    INDEX 01 00:02:07
  TRACK 05 AUDIO
    TITLE "LR_black_phrase_05_0005"
    INDEX 01 00:04:67
  TRACK 06 AUDIO
    TITLE "LR_black_phrase_05_0006"
    INDEX 01 00:05:64
  TRACK 07 AUDIO
    TITLE "LR_black_phrase_05_0007"
    INDEX 01 00:07:55
  TRACK 08 AUDIO
    TITLE "LR_black_phrase_05_0008"
    INDEX 01 00:08:12
  TRACK 09 AUDIO
    TITLE "LR_black_phrase_05_0009"
    INDEX 01 00:10:13
  TRACK 10 AUDIO
    TITLE "LR_black_phrase_05_0010"
    INDEX 01 00:10:36
  TRACK 11 AUDIO
    TITLE "LR_black_phrase_05_0011"
    INDEX 01 00:12:39
  TRACK 12 AUDIO
    TITLE "LR_black_phrase_05_0012"
    INDEX 01 00:13:44
  TRACK 13 AUDIO
    TITLE "LR_black_phrase_05_0013"
    INDEX 01 00:14:73
  TRACK 14 AUDIO
    TITLE "LR_black_phrase_05_0014"
    INDEX 01 00:15:39
  TRACK 15 AUDIO
    TITLE "LR_black_phrase_05_0015"
    INDEX 01 00:16:60
  TRACK 16 AUDIO
    TITLE "LR_black_phrase_05_0016"
    INDEX 01 00:17:60
  TRACK 17 AUDIO
    TITLE "LR_black_phrase_05_0017"
    INDEX 01 00:20:03
  TRACK 18 AUDIO
    TITLE "LR_black_phrase_05_0018"
    INDEX 01 00:20:42
  TRACK 19 AUDIO
    TITLE "LR_black_phrase_05_0019"
    INDEX 01 00:22:73
  TRACK 20 AUDIO
    TITLE "LR_black_phrase_05_0020"
    INDEX 01 00:23:27
  TRACK 21 AUDIO
    TITLE "LR_black_phrase_05_0021"
    INDEX 01 00:25:57
  TRACK 22 AUDIO
    TITLE "LR_black_phrase_05_0022"
    INDEX 01 00:26:63
  TRACK 23 AUDIO
    TITLE "LR_black_phrase_05_0023"
    INDEX 01 00:28:09
  TRACK 24 AUDIO
    TITLE "LR_black_phrase_05_0024"
    INDEX 01 00:28:50
  TRACK 25 AUDIO
    TITLE "LR_black_phrase_05_0025"
    INDEX 01 00:30:60
  TRACK 26 AUDIO
    TITLE "LR_black_phrase_05_0026"
    INDEX 01 00:31:60
  TRACK 27 AUDIO
    TITLE "LR_black_phrase_05_0027"
    INDEX 01 00:34:05
  TRACK 28 AUDIO
    TITLE "LR_black_phrase_05_0028"
    INDEX 01 00:34:44
  TRACK 29 AUDIO
    TITLE "LR_black_phrase_05_0029"
    INDEX 01 00:37:21
  TRACK 30 AUDIO
    TITLE "LR_black_phrase_05_0030"
    INDEX 01 00:37:49
  TRACK 31 AUDIO
    TITLE "LR_black_phrase_05_0031"
    INDEX 01 00:40:25
  TRACK 32 AUDIO
    TITLE "LR_black_phrase_05_0032"
    INDEX 01 00:41:29
  TRACK 33 AUDIO
    TITLE "LR_black_phrase_05_0033"
    INDEX 01 00:42:56
  TRACK 34 AUDIO
    TITLE "LR_black_phrase_05_0034"
    INDEX 01 00:43:22
  TRACK 35 AUDIO
    TITLE "LR_black_phrase_05_0035"
    INDEX 01 00:45:70
  TRACK 36 AUDIO
    TITLE "LR_black_phrase_05_0036"
    INDEX 01 00:46:67
  TRACK 37 AUDIO
    TITLE "LR_black_phrase_05_0037"
    INDEX 01 00:49:54
  TRACK 38 AUDIO
    TITLE "LR_black_phrase_05_0038"
    INDEX 01 00:50:20
  TRACK 39 AUDIO
    TITLE "LR_black_phrase_05_0039"
    INDEX 01 00:53:14
  TRACK 40 AUDIO
    TITLE "LR_black_phrase_05_0040"
    INDEX 01 00:53:44
  TRACK 41 AUDIO
    TITLE "LR_black_phrase_05_0041"
    INDEX 01 00:56:40
  TRACK 42 AUDIO
    TITLE "LR_black_phrase_05_0042"
    INDEX 01 00:57:44
  TRACK 43 AUDIO
    TITLE "LR_black_phrase_05_0043"
    INDEX 01 00:58:70
  TRACK 44 AUDIO
    TITLE "LR_black_phrase_05_0044"
    INDEX 01 00:59:35
  TRACK 45 AUDIO
    TITLE "LR_black_phrase_05_0045"
    INDEX 01 01:01:43
  TRACK 46 AUDIO
    TITLE "LR_black_phrase_05_0046"
    INDEX 01 01:02:43
  TRACK 47 AUDIO
    TITLE "LR_black_phrase_05_0047"
    INDEX 01 01:04:73
  TRACK 48 AUDIO
    TITLE "LR_black_phrase_05_0048"
    INDEX 01 01:05:37
  TRACK 49 AUDIO
    TITLE "LR_black_phrase_05_0049"
    INDEX 01 01:08:24
  TRACK 50 AUDIO
    TITLE "LR_black_phrase_05_0050"
    INDEX 01 01:08:53
  TRACK 51 AUDIO
    TITLE "LR_black_phrase_05_0051"
    INDEX 01 01:11:38
  TRACK 52 AUDIO
    TITLE "LR_black_phrase_05_0052"
    INDEX 01 01:12:41
  TRACK 53 AUDIO
    TITLE "LR_black_phrase_05_0053"
    INDEX 01 01:14:22
  TRACK 54 AUDIO
    TITLE "LR_black_phrase_05_0054"
    INDEX 01 01:14:64
  TRACK 55 AUDIO
    TITLE "LR_black_phrase_05_0055"
    INDEX 01 01:16:51
  TRACK 56 AUDIO
    TITLE "LR_black_phrase_05_0056"
    INDEX 01 01:17:50
  TRACK 57 AUDIO
    TITLE "LR_black_phrase_05_0057"
    INDEX 01 01:19:16
  TRACK 58 AUDIO
    TITLE "LR_black_phrase_05_0058"
    INDEX 01 01:19:55
  TRACK 59 AUDIO
    TITLE "LR_black_phrase_05_0059"
    INDEX 01 01:21:54
  TRACK 60 AUDIO
    TITLE "LR_black_phrase_05_0060"
    INDEX 01 01:22:06
  TRACK 61 AUDIO
    TITLE "LR_black_phrase_05_0061"
    INDEX 01 01:24:05
  TRACK 62 AUDIO
    TITLE "LR_black_phrase_05_0062"
    INDEX 01 01:25:09
  TRACK 63 AUDIO
    TITLE "LR_black_phrase_05_0063"
    INDEX 01 01:26:30
  TRACK 64 AUDIO
    TITLE "LR_black_phrase_05_0064"
    INDEX 01 01:26:67
  TRACK 65 AUDIO
    TITLE "LR_black_phrase_05_0065"
    INDEX 01 01:28:62
  TRACK 66 AUDIO
    TITLE "LR_black_phrase_05_0066"
    INDEX 01 01:29:61
  TRACK 67 AUDIO
    TITLE "LR_black_phrase_05_0067"
    INDEX 01 01:31:21
  TRACK 68 AUDIO
    TITLE "LR_black_phrase_05_0068"
    INDEX 01 01:31:62
  TRACK 69 AUDIO
    TITLE "LR_black_phrase_05_0069"
    INDEX 01 01:33:61
  TRACK 70 AUDIO
    TITLE "LR_black_phrase_05_0070"
    INDEX 01 01:34:11
  TRACK 71 AUDIO
    TITLE "LR_black_phrase_05_0071"
    INDEX 01 01:36:14
  TRACK 72 AUDIO
    TITLE "LR_black_phrase_05_0072"
    INDEX 01 01:37:14
  TRACK 73 AUDIO
    TITLE "LR_black_phrase_05_0073"
    INDEX 01 01:38:43
  TRACK 74 AUDIO
    TITLE "LR_black_phrase_05_0074"
    INDEX 01 01:39:07
  TRACK 75 AUDIO
    TITLE "LR_black_phrase_05_0075"
    INDEX 01 01:40:34
  TRACK 76 AUDIO
    TITLE "LR_black_phrase_05_0076"
    INDEX 01 01:41:31
  TRACK 77 AUDIO
    TITLE "LR_black_phrase_05_0077"
    INDEX 01 01:43:67
  TRACK 78 AUDIO
    TITLE "LR_black_phrase_05_0078"
    INDEX 01 01:44:29
  TRACK 79 AUDIO
    TITLE "LR_black_phrase_05_0079"
    INDEX 01 01:47:10
  TRACK 80 AUDIO
    TITLE "LR_black_phrase_05_0080"
    INDEX 01 01:47:39
  TRACK 81 AUDIO
    TITLE "LR_black_phrase_05_0081"
    INDEX 01 01:50:20
  TRACK 82 AUDIO
    TITLE "LR_black_phrase_05_0082"
    INDEX 01 01:51:27
  TRACK 83 AUDIO
    TITLE "LR_black_phrase_05_0083"
    INDEX 01 01:52:45
  TRACK 84 AUDIO
    TITLE "LR_black_phrase_05_0084"
    INDEX 01 01:53:07
  TRACK 85 AUDIO
    TITLE "LR_black_phrase_05_0085"
    INDEX 01 01:54:45
  TRACK 86 AUDIO
    TITLE "LR_black_phrase_05_0086"
    INDEX 01 01:55:49
  TRACK 87 AUDIO
    TITLE "LR_black_phrase_05_0087"
    INDEX 01 01:58:02
  TRACK 88 AUDIO
    TITLE "LR_black_phrase_05_0088"
    INDEX 01 01:58:41
  TRACK 89 AUDIO
    TITLE "LR_black_phrase_05_0089"
    INDEX 01 02:00:23
  TRACK 90 AUDIO
    TITLE "LR_black_phrase_05_0090"
    INDEX 01 02:00:52
  TRACK 91 AUDIO
    TITLE "LR_black_phrase_05_0091"
    INDEX 01 02:02:31
  TRACK 92 AUDIO
    TITLE "LR_black_phrase_05_0092"
    INDEX 01 02:03:35
  TRACK 93 AUDIO
    TITLE "LR_black_phrase_05_0093"
    INDEX 01 02:04:38
  TRACK 94 AUDIO
    TITLE "LR_black_phrase_05_0094"
    INDEX 01 02:05:04
  TRACK 95 AUDIO
    TITLE "LR_black_phrase_05_0095"
    INDEX 01 02:06:23
  TRACK 96 AUDIO
    TITLE "LR_black_phrase_05_0096"
    INDEX 01 02:07:23
  TRACK 97 AUDIO
    TITLE "LR_black_phrase_05_0097"
    INDEX 01 02:09:45
  TRACK 98 AUDIO
    TITLE "LR_black_phrase_05_0098"
    INDEX 01 02:10:07
  TRACK 99 AUDIO
    TITLE "LR_black_phrase_05_0099"
    INDEX 01 02:12:45
  TRACK 100 AUDIO
    TITLE "LR_black_phrase_05_0100"
    INDEX 01 02:12:75
  TRACK 101 AUDIO
    TITLE "LR_black_phrase_05_0101"
    INDEX 01 02:15:38
  TRACK 102 AUDIO
    TITLE "LR_black_phrase_05_0102"
    INDEX 01 02:16:37
  TRACK 103 AUDIO
    TITLE "LR_black_phrase_05_0103"
    INDEX 01 02:17:54
  TRACK 104 AUDIO
    TITLE "LR_black_phrase_05_0104"
    INDEX 01 02:18:22
  TRACK 105 AUDIO
    TITLE "LR_black_phrase_05_0105"
    INDEX 01 02:20:57
  TRACK 106 AUDIO
    TITLE "LR_black_phrase_05_0106"
    INDEX 01 02:21:58
  TRACK 107 AUDIO
    TITLE "LR_black_phrase_05_0107"
    INDEX 01 02:23:65
  TRACK 108 AUDIO
    TITLE "LR_black_phrase_05_0108"
    INDEX 01 02:24:27
  TRACK 109 AUDIO
    TITLE "LR_black_phrase_05_0109"
    INDEX 01 02:27:06
  TRACK 110 AUDIO
    TITLE "LR_black_phrase_05_0110"
    INDEX 01 02:27:27
  TRACK 111 AUDIO
    TITLE "LR_black_phrase_05_0111"
    INDEX 01 02:30:08
  TRACK 112 AUDIO
    TITLE "LR_black_phrase_05_0112"
    INDEX 01 02:31:05
  TRACK 113 AUDIO
    TITLE "LR_black_phrase_05_0113"
    INDEX 01 02:32:32
  TRACK 114 AUDIO
    TITLE "LR_black_phrase_05_0114"
    INDEX 01 02:32:68
  TRACK 115 AUDIO
    TITLE "LR_black_phrase_05_0115"
    INDEX 01 02:34:18
  TRACK 116 AUDIO
    TITLE "LR_black_phrase_05_0116"
    INDEX 01 02:35:17
  TRACK 117 AUDIO
    TITLE "LR_black_phrase_05_0117"
    INDEX 01 02:37:47
  TRACK 118 AUDIO
    TITLE "LR_black_phrase_05_0118"
    INDEX 01 02:38:09
  TRACK 119 AUDIO
    TITLE "LR_black_phrase_05_0119"
    INDEX 01 02:40:36
  TRACK 120 AUDIO
    TITLE "LR_black_phrase_05_0120"
    INDEX 01 02:40:53
  TRACK 121 AUDIO
    TITLE "LR_black_phrase_05_0121"
    INDEX 01 02:43:09
  TRACK 122 AUDIO
    TITLE "LR_black_phrase_05_0122"
    INDEX 01 02:44:02
  TRACK 123 AUDIO
    TITLE "LR_black_phrase_05_0123"
    INDEX 01 02:45:06
  TRACK 124 AUDIO
    TITLE "LR_black_phrase_05_0124"
    INDEX 01 02:45:39
  TRACK 125 AUDIO
    TITLE "LR_black_phrase_05_0125"
    INDEX 01 02:47:48
  TRACK 126 AUDIO
    TITLE "LR_black_phrase_05_0126"
    INDEX 01 02:48:49
  TRACK 127 AUDIO
    TITLE "LR_black_phrase_05_0127"
    INDEX 01 02:50:62
  TRACK 128 AUDIO
    TITLE "LR_black_phrase_05_0128"
    INDEX 01 02:51:20
  TRACK 129 AUDIO
    TITLE "LR_black_phrase_05_0129"
    INDEX 01 02:53:38
  TRACK 130 AUDIO
    TITLE "LR_black_phrase_05_0130"
    INDEX 01 02:53:60
  TRACK 131 AUDIO
    TITLE "LR_black_phrase_05_0131"
    INDEX 01 02:56:03
  TRACK 132 AUDIO
    TITLE "LR_black_phrase_05_0132"
    INDEX 01 02:56:74
  TRACK 133 AUDIO
    TITLE "LR_black_phrase_05_0133"
    INDEX 01 02:58:22
  TRACK 134 AUDIO
    TITLE "LR_black_phrase_05_0134"
    INDEX 01 02:58:57
  TRACK 135 AUDIO
    TITLE "LR_black_phrase_05_0135"
    INDEX 01 03:01:38
  TRACK 136 AUDIO
    TITLE "LR_black_phrase_05_0136"
    INDEX 01 03:02:37
  TRACK 137 AUDIO
    TITLE "LR_black_phrase_05_0137"
    INDEX 01 03:05:42
  TRACK 138 AUDIO
    TITLE "LR_black_phrase_05_0138"
    INDEX 01 03:05:75
  TRACK 139 AUDIO
    TITLE "LR_black_phrase_05_0139"
    INDEX 01 03:08:44
  TRACK 140 AUDIO
    TITLE "LR_black_phrase_05_0140"
    INDEX 01 03:08:65
  TRACK 141 AUDIO
    TITLE "LR_black_phrase_05_0141"
    INDEX 01 03:11:34
  TRACK 142 AUDIO
    TITLE "LR_black_phrase_05_0142"
    INDEX 01 03:12:30
  TRACK 143 AUDIO
    TITLE "LR_black_phrase_05_0143"
    INDEX 01 03:13:63
  TRACK 144 AUDIO
    TITLE "LR_black_phrase_05_0144"
    INDEX 01 03:14:27
  TRACK 145 AUDIO
    TITLE "LR_black_phrase_05_0145"
    INDEX 01 03:17:19
  TRACK 146 AUDIO
    TITLE "LR_black_phrase_05_0146"
    INDEX 01 03:18:21
  TRACK 147 AUDIO
    TITLE "LR_black_phrase_05_0147"
    INDEX 01 03:20:35
  TRACK 148 AUDIO
    TITLE "LR_black_phrase_05_0148"
    INDEX 01 03:20:74
  TRACK 149 AUDIO
    TITLE "LR_black_phrase_05_0149"
    INDEX 01 03:23:28
  TRACK 150 AUDIO
    TITLE "LR_black_phrase_05_0150"
    INDEX 01 03:23:55
  TRACK 151 AUDIO
    TITLE "LR_black_phrase_05_0151"
    INDEX 01 03:26:08
  TRACK 152 AUDIO
    TITLE "LR_black_phrase_05_0152"
    INDEX 01 03:27:04
  TRACK 153 AUDIO
    TITLE "LR_black_phrase_05_0153"
    INDEX 01 03:28:13
  TRACK 154 AUDIO
    TITLE "LR_black_phrase_05_0154"
    INDEX 01 03:28:48
  TRACK 155 AUDIO
    TITLE "LR_black_phrase_05_0155"
    INDEX 01 03:31:14
  TRACK 156 AUDIO
    TITLE "LR_black_phrase_05_0156"
    INDEX 01 03:32:13
  TRACK 157 AUDIO
    TITLE "LR_black_phrase_05_0157"
    INDEX 01 03:34:10
  TRACK 158 AUDIO
    TITLE "LR_black_phrase_05_0158"
    INDEX 01 03:34:45
  TRACK 159 AUDIO
    TITLE "LR_black_phrase_05_0159"
    INDEX 01 03:37:20
  TRACK 160 AUDIO
    TITLE "LR_black_phrase_05_0160"
    INDEX 01 03:37:42
  TRACK 161 AUDIO
    TITLE "LR_black_phrase_05_0161"
    INDEX 01 03:40:16
  TRACK 162 AUDIO
    TITLE "LR_black_phrase_05_0162"
    INDEX 01 03:41:18
  TRACK 163 AUDIO
    TITLE "LR_black_phrase_05_0163"
    INDEX 01 03:42:19
  TRACK 164 AUDIO
    TITLE "LR_black_phrase_05_0164"
    INDEX 01 03:42:54
  TRACK 165 AUDIO
    TITLE "LR_black_phrase_05_0165"
    INDEX 01 03:44:61
  TRACK 166 AUDIO
    TITLE "LR_black_phrase_05_0166"
    INDEX 01 03:45:59
  TRACK 167 AUDIO
    TITLE "LR_black_phrase_05_0167"
    INDEX 01 03:48:10
  TRACK 168 AUDIO
    TITLE "LR_black_phrase_05_0168"
    INDEX 01 03:48:53
  TRACK 169 AUDIO
    TITLE "LR_black_phrase_05_0169"
    INDEX 01 03:51:24
  TRACK 170 AUDIO
    TITLE "LR_black_phrase_05_0170"
    INDEX 01 03:51:53
  TRACK 171 AUDIO
    TITLE "LR_black_phrase_05_0171"
    INDEX 01 03:54:22
  TRACK 172 AUDIO
    TITLE "LR_black_phrase_05_0172"
    INDEX 01 03:55:20
  TRACK 173 AUDIO
    TITLE "LR_black_phrase_05_0173"
    INDEX 01 03:56:31
  TRACK 174 AUDIO
    TITLE "LR_black_phrase_05_0174"
    INDEX 01 03:56:66
  TRACK 175 AUDIO
    TITLE "LR_black_phrase_05_0175"
    INDEX 01 03:58:26
  TRACK 176 AUDIO
    TITLE "LR_black_phrase_05_0176"
    INDEX 01 03:59:28
  TRACK 177 AUDIO
    TITLE "LR_black_phrase_05_0177"
    INDEX 01 04:01:13
  TRACK 178 AUDIO
    TITLE "LR_black_phrase_05_0178"
    INDEX 01 04:01:48
  TRACK 179 AUDIO
    TITLE "LR_black_phrase_05_0179"
    INDEX 01 04:03:33
  TRACK 180 AUDIO
    TITLE "LR_black_phrase_05_0180"
    INDEX 01 04:03:53
  TRACK 181 AUDIO
    TITLE "LR_black_phrase_05_0181"
    INDEX 01 04:05:38
  TRACK 182 AUDIO
    TITLE "LR_black_phrase_05_0182"
    INDEX 01 04:06:31
  TRACK 183 AUDIO
    TITLE "LR_black_phrase_05_0183"
    INDEX 01 04:07:62
  TRACK 184 AUDIO
    TITLE "LR_black_phrase_05_0184"
    INDEX 01 04:08:24
  TRACK 185 AUDIO
    TITLE "LR_black_phrase_05_0185"
    INDEX 01 04:09:59
  TRACK 186 AUDIO
    TITLE "LR_black_phrase_05_0186"
    INDEX 01 04:10:57
  TRACK 187 AUDIO
    TITLE "LR_black_phrase_05_0187"
    INDEX 01 04:12:58
  TRACK 188 AUDIO
    TITLE "LR_black_phrase_05_0188"
    INDEX 01 04:13:18
  TRACK 189 AUDIO
    TITLE "LR_black_phrase_05_0189"
    INDEX 01 04:15:17
  TRACK 190 AUDIO
    TITLE "LR_black_phrase_05_0190"
    INDEX 01 04:15:34
  TRACK 191 AUDIO
    TITLE "LR_black_phrase_05_0191"
    INDEX 01 04:17:33
  TRACK 192 AUDIO
    TITLE "LR_black_phrase_05_0192"
    INDEX 01 04:18:27
  TRACK 193 AUDIO
    TITLE "LR_black_phrase_05_0193"
    INDEX 01 04:19:50
  TRACK 194 AUDIO
    TITLE "LR_black_phrase_05_0194"
    INDEX 01 04:20:10
  TRACK 195 AUDIO
    TITLE "LR_black_phrase_05_0195"
    INDEX 01 04:22:74
  TRACK 196 AUDIO
    TITLE "LR_black_phrase_05_0196"
    INDEX 01 04:24:08
  TRACK 197 AUDIO
    TITLE "LR_black_phrase_05_0197"
    INDEX 01 04:26:62
  TRACK 198 AUDIO
    TITLE "LR_black_phrase_05_0198"
    INDEX 01 04:27:20
  TRACK 199 AUDIO
    TITLE "LR_black_phrase_05_0199"
    INDEX 01 04:29:36
  TRACK 200 AUDIO
    TITLE "LR_black_phrase_05_0200"
    INDEX 01 04:29:58
  TRACK 201 AUDIO
    TITLE "LR_black_phrase_05_0201"
    INDEX 01 04:31:75
  TRACK 202 AUDIO
    TITLE "LR_black_phrase_05_0202"
    INDEX 01 04:32:74
  TRACK 203 AUDIO
    TITLE "LR_black_phrase_05_0203"
    INDEX 01 04:34:16
  TRACK 204 AUDIO
    TITLE "LR_black_phrase_05_0204"
    INDEX 01 04:34:51
  TRACK 205 AUDIO
    TITLE "LR_black_phrase_05_0205"
    INDEX 01 04:36:11
  TRACK 206 AUDIO
    TITLE "LR_black_phrase_05_0206"
    INDEX 01 04:37:09
  TRACK 207 AUDIO
    TITLE "LR_black_phrase_05_0207"
    INDEX 01 04:38:37
  TRACK 208 AUDIO
    TITLE "LR_black_phrase_05_0208"
    INDEX 01 04:38:71
  TRACK 209 AUDIO
    TITLE "LR_black_phrase_05_0209"
    INDEX 01 04:40:56
  TRACK 210 AUDIO
    TITLE "LR_black_phrase_05_0210"
    INDEX 01 04:41:04
  TRACK 211 AUDIO
    TITLE "LR_black_phrase_05_0211"
    INDEX 01 04:42:63
  TRACK 212 AUDIO
    TITLE "LR_black_phrase_05_0212"
    INDEX 01 04:43:68
  TRACK 213 AUDIO
    TITLE "LR_black_phrase_05_0213"
    INDEX 01 04:45:33
  TRACK 214 AUDIO
    TITLE "LR_black_phrase_05_0214"
    INDEX 01 04:45:75
  TRACK 215 AUDIO
    TITLE "LR_black_phrase_05_0215"
    INDEX 01 04:46:72
  TRACK 216 AUDIO
    TITLE "LR_black_phrase_05_0216"
    INDEX 01 04:47:66
  TRACK 217 AUDIO
    TITLE "LR_black_phrase_05_0217"
    INDEX 01 04:50:13
  TRACK 218 AUDIO
    TITLE "LR_black_phrase_05_0218"
    INDEX 01 04:50:54
  TRACK 219 AUDIO
    TITLE "LR_black_phrase_05_0219"
    INDEX 01 04:53:17
  TRACK 220 AUDIO
    TITLE "LR_black_phrase_05_0220"
    INDEX 01 04:53:47
  TRACK 221 AUDIO
    TITLE "LR_black_phrase_05_0221"
    INDEX 01 04:56:12
  TRACK 222 AUDIO
    TITLE "LR_black_phrase_05_0222"
    INDEX 01 04:57:17
  TRACK 223 AUDIO
    TITLE "LR_black_phrase_05_0223"
    INDEX 01 04:58:42
  TRACK 224 AUDIO
    TITLE "LR_black_phrase_05_0224"
    INDEX 01 04:59:06
  TRACK 225 AUDIO
    TITLE "LR_black_phrase_05_0225"
    INDEX 01 05:01:48
  TRACK 226 AUDIO
    TITLE "LR_black_phrase_05_0226"
    INDEX 01 05:02:48
  TRACK 227 AUDIO
    TITLE "LR_black_phrase_05_0227"
    INDEX 01 05:05:24
  TRACK 228 AUDIO
    TITLE "LR_black_phrase_05_0228"
    INDEX 01 05:05:64
  TRACK 229 AUDIO
    TITLE "LR_black_phrase_05_0229"
    INDEX 01 05:08:72
  TRACK 230 AUDIO
    TITLE "LR_black_phrase_05_0230"
    INDEX 01 05:09:28
  TRACK 231 AUDIO
    TITLE "LR_black_phrase_05_0231"
    INDEX 01 05:12:34
  TRACK 232 AUDIO
    TITLE "LR_black_phrase_05_0232"
    INDEX 01 05:13:40
  TRACK 233 AUDIO
    TITLE "LR_black_phrase_05_0233"
    INDEX 01 05:14:61
  TRACK 234 AUDIO
    TITLE "LR_black_phrase_05_0234"
    INDEX 01 05:15:25
  TRACK 235 AUDIO
    TITLE "LR_black_phrase_05_0235"
    INDEX 01 05:16:61
  TRACK 236 AUDIO
    TITLE "LR_black_phrase_05_0236"
    INDEX 01 05:17:61
  TRACK 237 AUDIO
    TITLE "LR_black_phrase_05_0237"
    INDEX 01 05:19:25
  TRACK 238 AUDIO
    TITLE "LR_black_phrase_05_0238"
    INDEX 01 05:19:64
  TRACK 239 AUDIO
    TITLE "LR_black_phrase_05_0239"
    INDEX 01 05:22:05
  TRACK 240 AUDIO
    TITLE "LR_black_phrase_05_0240"
    INDEX 01 05:22:35
  TRACK 241 AUDIO
    TITLE "LR_black_phrase_05_0241"
    INDEX 01 05:24:51
  TRACK 242 AUDIO
    TITLE "LR_black_phrase_05_0242"
    INDEX 01 05:25:55
  TRACK 243 AUDIO
    TITLE "LR_black_phrase_05_0243"
    INDEX 01 05:26:64
  TRACK 244 AUDIO
    TITLE "LR_black_phrase_05_0244"
    INDEX 01 05:27:26
  TRACK 245 AUDIO
    TITLE "LR_black_phrase_05_0245"
    INDEX 01 05:30:11
  TRACK 246 AUDIO
    TITLE "LR_black_phrase_05_0246"
    INDEX 01 05:31:10
  TRACK 247 AUDIO
    TITLE "LR_black_phrase_05_0247"
    INDEX 01 05:33:15
  TRACK 248 AUDIO
    TITLE "LR_black_phrase_05_0248"
    INDEX 01 05:33:54
  TRACK 249 AUDIO
    TITLE "LR_black_phrase_05_0249"
    INDEX 01 05:36:05
  TRACK 250 AUDIO
    TITLE "LR_black_phrase_05_0250"
    INDEX 01 05:36:37
  TRACK 251 AUDIO
    TITLE "LR_black_phrase_05_0251"
    INDEX 01 05:38:63
  TRACK 252 AUDIO
    TITLE "LR_black_phrase_05_0252"
    INDEX 01 05:39:70
  TRACK 253 AUDIO
    TITLE "LR_black_phrase_05_0253"
    INDEX 01 05:41:12
  TRACK 254 AUDIO
    TITLE "LR_black_phrase_05_0254"
    INDEX 01 05:41:50
  TRACK 255 AUDIO
    TITLE "LR_black_phrase_05_0255"
    INDEX 01 05:44:21
  TRACK 256 AUDIO
    TITLE "LR_black_phrase_05_0256"
    INDEX 01 05:45:24
  TRACK 257 AUDIO
    TITLE "LR_black_phrase_05_0257"
    INDEX 01 05:47:60
  TRACK 258 AUDIO
    TITLE "LR_black_phrase_05_0258"
    INDEX 01 05:48:24
  TRACK 259 AUDIO
    TITLE "LR_black_phrase_05_0259"
    INDEX 01 05:51:13
  TRACK 260 AUDIO
    TITLE "LR_black_phrase_05_0260"
    INDEX 01 05:51:42
  TRACK 261 AUDIO
    TITLE "LR_black_phrase_05_0261"
    INDEX 01 05:54:31
  TRACK 262 AUDIO
    TITLE "LR_black_phrase_05_0262"
    INDEX 01 05:55:34
  TRACK 263 AUDIO
    TITLE "LR_black_phrase_05_0263"
    INDEX 01 05:56:59
  TRACK 264 AUDIO
    TITLE "LR_black_phrase_05_0264"
    INDEX 01 05:57:21
  TRACK 265 AUDIO
    TITLE "LR_black_phrase_05_0265"
    INDEX 01 05:58:56
  TRACK 266 AUDIO
    TITLE "LR_black_phrase_05_0266"
    INDEX 01 05:59:55
  TRACK 267 AUDIO
    TITLE "LR_black_phrase_05_0267"
    INDEX 01 06:02:26
  TRACK 268 AUDIO
    TITLE "LR_black_phrase_05_0268"
    INDEX 01 06:02:66
  TRACK 269 AUDIO
    TITLE "LR_black_phrase_05_0269"
    INDEX 01 06:05:25
  TRACK 270 AUDIO
    TITLE "LR_black_phrase_05_0270"
    INDEX 01 06:05:60
  TRACK 271 AUDIO
    TITLE "LR_black_phrase_05_0271"
    INDEX 01 06:08:19
  TRACK 272 AUDIO
    TITLE "LR_black_phrase_05_0272"
    INDEX 01 06:09:30
  TRACK 273 AUDIO
    TITLE "LR_black_phrase_05_0273"
    INDEX 01 06:10:57
  TRACK 274 AUDIO
    TITLE "LR_black_phrase_05_0274"
    INDEX 01 06:11:21
  TRACK 275 AUDIO
    TITLE "LR_black_phrase_05_0275"
    INDEX 01 06:13:54
  TRACK 276 AUDIO
    TITLE "LR_black_phrase_05_0276"
    INDEX 01 06:14:51
  TRACK 277 AUDIO
    TITLE "LR_black_phrase_05_0277"
    INDEX 01 06:17:20
  TRACK 278 AUDIO
    TITLE "LR_black_phrase_05_0278"
    INDEX 01 06:17:63
  TRACK 279 AUDIO
    TITLE "LR_black_phrase_05_0279"
    INDEX 01 06:19:72
  TRACK 280 AUDIO
    TITLE "LR_black_phrase_05_0280"
    INDEX 01 06:20:26
  TRACK 281 AUDIO
    TITLE "LR_black_phrase_05_0281"
    INDEX 01 06:22:43
  TRACK 282 AUDIO
    TITLE "LR_black_phrase_05_0282"
    INDEX 01 06:23:48
  TRACK 283 AUDIO
    TITLE "LR_black_phrase_05_0283"
    INDEX 01 06:24:57
  TRACK 284 AUDIO
    TITLE "LR_black_phrase_05_0284"
    INDEX 01 06:25:21
  TRACK 285 AUDIO
    TITLE "LR_black_phrase_05_0285"
    INDEX 01 06:27:50
  TRACK 286 AUDIO
    TITLE "LR_black_phrase_05_0286"
    INDEX 01 06:28:49
  TRACK 287 AUDIO
    TITLE "LR_black_phrase_05_0287"
    INDEX 01 06:30:62
  TRACK 288 AUDIO
    TITLE "LR_black_phrase_05_0288"
    INDEX 01 06:31:28
  TRACK 289 AUDIO
    TITLE "LR_black_phrase_05_0289"
    INDEX 01 06:33:43
  TRACK 290 AUDIO
    TITLE "LR_black_phrase_05_0290"
    INDEX 01 06:33:70
  TRACK 291 AUDIO
    TITLE "LR_black_phrase_05_0291"
    INDEX 01 06:36:10
  TRACK 292 AUDIO
    TITLE "LR_black_phrase_05_0292"
    INDEX 01 06:37:13
  TRACK 293 AUDIO
    TITLE "LR_black_phrase_05_0293"
    INDEX 01 06:38:30
  TRACK 294 AUDIO
    TITLE "LR_black_phrase_05_0294"
    INDEX 01 06:38:69
  TRACK 295 AUDIO
    TITLE "LR_black_phrase_05_0295"
    INDEX 01 06:41:58
  TRACK 296 AUDIO
    TITLE "LR_black_phrase_05_0296"
    INDEX 01 06:42:57
  TRACK 297 AUDIO
    TITLE "LR_black_phrase_05_0297"
    INDEX 01 06:45:09
  TRACK 298 AUDIO
    TITLE "LR_black_phrase_05_0298"
    INDEX 01 06:45:48
  TRACK 299 AUDIO
    TITLE "LR_black_phrase_05_0299"
    INDEX 01 06:47:52
  TRACK 300 AUDIO
    TITLE "LR_black_phrase_05_0300"
    INDEX 01 06:48:09
  TRACK 301 AUDIO
    TITLE "LR_black_phrase_05_0301"
    INDEX 01 06:50:16
  TRACK 302 AUDIO
    TITLE "LR_black_phrase_05_0302"
    INDEX 01 06:51:17
  TRACK 303 AUDIO
    TITLE "LR_black_phrase_05_0303"
    INDEX 01 06:52:32
  TRACK 304 AUDIO
    TITLE "LR_black_phrase_05_0304"
    INDEX 01 06:52:67
  TRACK 305 AUDIO
    TITLE "LR_black_phrase_05_0305"
    INDEX 01 06:55:36
  TRACK 306 AUDIO
    TITLE "LR_black_phrase_05_0306"
    INDEX 01 06:56:32
  TRACK 307 AUDIO
    TITLE "LR_black_phrase_05_0307"
    INDEX 01 06:59:32
  TRACK 308 AUDIO
    TITLE "LR_black_phrase_05_0308"
    INDEX 01 06:59:67
  TRACK 309 AUDIO
    TITLE "LR_black_phrase_05_0309"
    INDEX 01 07:03:30
  TRACK 310 AUDIO
    TITLE "LR_black_phrase_05_0310"
    INDEX 01 07:03:55
  TRACK 311 AUDIO
    TITLE "LR_black_phrase_05_0311"
    INDEX 01 07:07:16
  TRACK 312 AUDIO
    TITLE "LR_black_phrase_05_0312"
    INDEX 01 07:08:19
  TRACK 313 AUDIO
    TITLE "LR_black_phrase_05_0313"
    INDEX 01 07:09:34
  TRACK 314 AUDIO
    TITLE "LR_black_phrase_05_0314"
    INDEX 01 07:09:70
  TRACK 315 AUDIO
    TITLE "LR_black_phrase_05_0315"
    INDEX 01 07:12:64
  TRACK 316 AUDIO
    TITLE "LR_black_phrase_05_0316"
    INDEX 01 07:13:62
  TRACK 317 AUDIO
    TITLE "LR_black_phrase_05_0317"
    INDEX 01 07:16:37
  TRACK 318 AUDIO
    TITLE "LR_black_phrase_05_0318"
    INDEX 01 07:16:70
  TRACK 319 AUDIO
    TITLE "LR_black_phrase_05_0319"
    INDEX 01 07:19:58
  TRACK 320 AUDIO
    TITLE "LR_black_phrase_05_0320"
    INDEX 01 07:20:05
  TRACK 321 AUDIO
    TITLE "LR_black_phrase_05_0321"
    INDEX 01 07:22:68
  TRACK 322 AUDIO
    TITLE "LR_black_phrase_05_0322"
    INDEX 01 07:23:68
  TRACK 323 AUDIO
    TITLE "LR_black_phrase_05_0323"
    INDEX 01 07:24:73
  TRACK 324 AUDIO
    TITLE "LR_black_phrase_05_0324"
    INDEX 01 07:25:33
  TRACK 325 AUDIO
    TITLE "LR_black_phrase_05_0325"
    INDEX 01 07:27:68
  TRACK 326 AUDIO
    TITLE "LR_black_phrase_05_0326"
    INDEX 01 07:28:67
  TRACK 327 AUDIO
    TITLE "LR_black_phrase_05_0327"
    INDEX 01 07:30:66
  TRACK 328 AUDIO
    TITLE "LR_black_phrase_05_0328"
    INDEX 01 07:31:26
  TRACK 329 AUDIO
    TITLE "LR_black_phrase_05_0329"
    INDEX 01 07:33:70
  TRACK 330 AUDIO
    TITLE "LR_black_phrase_05_0330"
    INDEX 01 07:34:17
  TRACK 331 AUDIO
    TITLE "LR_black_phrase_05_0331"
    INDEX 01 07:36:59
  TRACK 332 AUDIO
    TITLE "LR_black_phrase_05_0332"
    INDEX 01 07:37:56
  TRACK 333 AUDIO
    TITLE "LR_black_phrase_05_0333"
    INDEX 01 07:39:12
  TRACK 334 AUDIO
    TITLE "LR_black_phrase_05_0334"
    INDEX 01 07:39:41
  TRACK 335 AUDIO
    TITLE "LR_black_phrase_05_0335"
    INDEX 01 07:41:62
  TRACK 336 AUDIO
    TITLE "LR_black_phrase_05_0336"
    INDEX 01 07:42:57
  TRACK 337 AUDIO
    TITLE "LR_black_phrase_05_0337"
    INDEX 01 07:44:39
  TRACK 338 AUDIO
    TITLE "LR_black_phrase_05_0338"
    INDEX 01 07:44:74
  TRACK 339 AUDIO
    TITLE "LR_black_phrase_05_0339"
    INDEX 01 07:47:06
  TRACK 340 AUDIO
    TITLE "LR_black_phrase_05_0340"
    INDEX 01 07:47:25
  TRACK 341 AUDIO
    TITLE "LR_black_phrase_05_0341"
    INDEX 01 07:49:30
  TRACK 342 AUDIO
    TITLE "LR_black_phrase_05_0342"
    INDEX 01 07:50:26
  TRACK 343 AUDIO
    TITLE "LR_black_phrase_05_0343"
    INDEX 01 07:51:54
  TRACK 344 AUDIO
    TITLE "LR_black_phrase_05_0344"
    INDEX 01 07:52:15
  TRACK 345 AUDIO
    TITLE "LR_black_phrase_05_0345"
    INDEX 01 07:53:59
  TRACK 346 AUDIO
    TITLE "LR_black_phrase_05_0346"
    INDEX 01 07:54:57
  TRACK 347 AUDIO
    TITLE "LR_black_phrase_05_0347"
    INDEX 01 07:57:26
  TRACK 348 AUDIO
    TITLE "LR_black_phrase_05_0348"
    INDEX 01 07:57:65
  TRACK 349 AUDIO
    TITLE "LR_black_phrase_05_0349"
    INDEX 01 08:01:04
  TRACK 350 AUDIO
    TITLE "LR_black_phrase_05_0350"
    INDEX 01 08:01:27
  TRACK 351 AUDIO
    TITLE "LR_black_phrase_05_0351"
    INDEX 01 08:04:41
  TRACK 352 AUDIO
    TITLE "LR_black_phrase_05_0352"
    INDEX 01 08:05:39
  TRACK 353 AUDIO
    TITLE "LR_black_phrase_05_0353"
    INDEX 01 08:06:66
  TRACK 354 AUDIO
    TITLE "LR_black_phrase_05_0354"
    INDEX 01 08:07:24
  TRACK 355 AUDIO
    TITLE "LR_black_phrase_05_0355"
    INDEX 01 08:08:37
  TRACK 356 AUDIO
    TITLE "LR_black_phrase_05_0356"
    INDEX 01 08:09:37
  TRACK 357 AUDIO
    TITLE "LR_black_phrase_05_0357"
    INDEX 01 08:11:06
  TRACK 358 AUDIO
    TITLE "LR_black_phrase_05_0358"
    INDEX 01 08:11:41
  TRACK 359 AUDIO
    TITLE "LR_black_phrase_05_0359"
    INDEX 01 08:13:66
  TRACK 360 AUDIO
    TITLE "LR_black_phrase_05_0360"
    INDEX 01 08:14:10
  TRACK 361 AUDIO
    TITLE "LR_black_phrase_05_0361"
    INDEX 01 08:16:33
  TRACK 362 AUDIO
    TITLE "LR_black_phrase_05_0362"
    INDEX 01 08:17:28
  TRACK 363 AUDIO
    TITLE "LR_black_phrase_05_0363"
    INDEX 01 08:18:47
  TRACK 364 AUDIO
    TITLE "LR_black_phrase_05_0364"
    INDEX 01 08:19:10
  TRACK 365 AUDIO
    TITLE "LR_black_phrase_05_0365"
    INDEX 01 08:21:18
  TRACK 366 AUDIO
    TITLE "LR_black_phrase_05_0366"
    INDEX 01 08:22:20
  TRACK 367 AUDIO
    TITLE "LR_black_phrase_05_0367"
    INDEX 01 08:24:17
  TRACK 368 AUDIO
    TITLE "LR_black_phrase_05_0368"
    INDEX 01 08:24:50
  TRACK 369 AUDIO
    TITLE "LR_black_phrase_05_0369"
    INDEX 01 08:27:09
  TRACK 370 AUDIO
    TITLE "LR_black_phrase_05_0370"
    INDEX 01 08:27:29
  TRACK 371 AUDIO
    TITLE "LR_black_phrase_05_0371"
    INDEX 01 08:29:65
  TRACK 372 AUDIO
    TITLE "LR_black_phrase_05_0372"
    INDEX 01 08:30:60
  TRACK 373 AUDIO
    TITLE "LR_black_phrase_05_0373"
    INDEX 01 08:32:01
  TRACK 374 AUDIO
    TITLE "LR_black_phrase_05_0374"
    INDEX 01 08:32:32
  TRACK 375 AUDIO
    TITLE "LR_black_phrase_05_0375"
    INDEX 01 08:33:51
  TRACK 376 AUDIO
    TITLE "LR_black_phrase_05_0376"
    INDEX 01 08:34:50
  TRACK 377 AUDIO
    TITLE "LR_black_phrase_05_0377"
    INDEX 01 08:37:37
  TRACK 378 AUDIO
    TITLE "LR_black_phrase_05_0378"
    INDEX 01 08:37:70
  TRACK 379 AUDIO
    TITLE "LR_black_phrase_05_0379"
    INDEX 01 08:40:10
  TRACK 380 AUDIO
    TITLE "LR_black_phrase_05_0380"
    INDEX 01 08:40:29
  TRACK 381 AUDIO
    TITLE "LR_black_phrase_05_0381"
    INDEX 01 08:42:46
  TRACK 382 AUDIO
    TITLE "LR_black_phrase_05_0382"
    INDEX 01 08:43:39
  TRACK 383 AUDIO
    TITLE "LR_black_phrase_05_0383"
    INDEX 01 08:44:59
  TRACK 384 AUDIO
    TITLE "LR_black_phrase_05_0384"
    INDEX 01 08:45:23
  TRACK 385 AUDIO
    TITLE "LR_black_phrase_05_0385"
    INDEX 01 08:47:73
  TRACK 386 AUDIO
    TITLE "LR_black_phrase_05_0386"
    INDEX 01 08:48:72
  TRACK 387 AUDIO
    TITLE "LR_black_phrase_05_0387"
    INDEX 01 08:50:63
  TRACK 388 AUDIO
    TITLE "LR_black_phrase_05_0388"
    INDEX 01 08:51:23
  TRACK 389 AUDIO
    TITLE "LR_black_phrase_05_0389"
    INDEX 01 08:53:38
  TRACK 390 AUDIO
    TITLE "LR_black_phrase_05_0390"
    INDEX 01 08:53:59
  TRACK 391 AUDIO
    TITLE "LR_black_phrase_05_0391"
    INDEX 01 08:56:01
  TRACK 392 AUDIO
    TITLE "LR_black_phrase_05_0392"
    INDEX 01 08:56:72
  TRACK 393 AUDIO
    TITLE "LR_black_phrase_05_0393"
    INDEX 01 08:58:02
  TRACK 394 AUDIO
    TITLE "LR_black_phrase_05_0394"
    INDEX 01 08:58:47
  TRACK 395 AUDIO
    TITLE "LR_black_phrase_05_0395"
    INDEX 01 09:01:22
  TRACK 396 AUDIO
    TITLE "LR_black_phrase_05_0396"
    INDEX 01 09:02:15
  TRACK 397 AUDIO
    TITLE "LR_black_phrase_05_0397"
    INDEX 01 09:04:12
  TRACK 398 AUDIO
    TITLE "LR_black_phrase_05_0398"
    INDEX 01 09:04:48
  TRACK 399 AUDIO
    TITLE "LR_black_phrase_05_0399"
    INDEX 01 09:06:21
  TRACK 400 AUDIO
    TITLE "LR_black_phrase_05_0400"
    INDEX 01 09:06:42
  TRACK 401 AUDIO
    TITLE "LR_black_phrase_05_0401"
    INDEX 01 09:08:16
  TRACK 402 AUDIO
    TITLE "LR_black_phrase_05_0402"
    INDEX 01 09:09:17
  TRACK 403 AUDIO
    TITLE "LR_black_phrase_05_0403"
    INDEX 01 09:10:30
  TRACK 404 AUDIO
    TITLE "LR_black_phrase_05_0404"
    INDEX 01 09:10:70
  TRACK 405 AUDIO
    TITLE "LR_black_phrase_05_0405"
    INDEX 01 09:11:71
  TRACK 406 AUDIO
    TITLE "LR_black_phrase_05_0406"
    INDEX 01 09:12:65
  TRACK 407 AUDIO
    TITLE "LR_black_phrase_05_0407"
    INDEX 01 09:14:64
  TRACK 408 AUDIO
    TITLE "LR_black_phrase_05_0408"
    INDEX 01 09:15:30
  TRACK 409 AUDIO
    TITLE "LR_black_phrase_05_0409"
    INDEX 01 09:17:19
  TRACK 410 AUDIO
    TITLE "LR_black_phrase_05_0410"
    INDEX 01 09:17:50
  TRACK 411 AUDIO
    TITLE "LR_black_phrase_05_0411"
    INDEX 01 09:19:41
  TRACK 412 AUDIO
    TITLE "LR_black_phrase_05_0412"
    INDEX 01 09:20:48
  TRACK 413 AUDIO
    TITLE "LR_black_phrase_05_0413"
    INDEX 01 09:21:56
  TRACK 414 AUDIO
    TITLE "LR_black_phrase_05_0414"
    INDEX 01 09:22:18
  TRACK 415 AUDIO
    TITLE "LR_black_phrase_05_0415"
    INDEX 01 09:24:27
  TRACK 416 AUDIO
    TITLE "LR_black_phrase_05_0416"
    INDEX 01 09:25:26
  TRACK 417 AUDIO
    TITLE "LR_black_phrase_05_0417"
    INDEX 01 09:26:55
  TRACK 418 AUDIO
    TITLE "LR_black_phrase_05_0418"
    INDEX 01 09:27:19
  TRACK 419 AUDIO
    TITLE "LR_black_phrase_05_0419"
    INDEX 01 09:29:24
  TRACK 420 AUDIO
    TITLE "LR_black_phrase_05_0420"
    INDEX 01 09:29:53
  TRACK 421 AUDIO
    TITLE "LR_black_phrase_05_0421"
    INDEX 01 09:31:56
  TRACK 422 AUDIO
    TITLE "LR_black_phrase_05_0422"
    INDEX 01 09:32:60
  TRACK 423 AUDIO
    TITLE "LR_black_phrase_05_0423"
    INDEX 01 09:34:13
  TRACK 424 AUDIO
    TITLE "LR_black_phrase_05_0424"
    INDEX 01 09:34:56
  TRACK 425 AUDIO
    TITLE "LR_black_phrase_05_0425"
    INDEX 01 09:35:64
  TRACK 426 AUDIO
    TITLE "LR_black_phrase_05_0426"
    INDEX 01 09:36:65
  TRACK 427 AUDIO
    TITLE "LR_black_phrase_05_0427"
    INDEX 01 09:38:27
  TRACK 428 AUDIO
    TITLE "LR_black_phrase_05_0428"
    INDEX 01 09:38:68
  TRACK 429 AUDIO
    TITLE "LR_black_phrase_05_0429"
    INDEX 01 09:40:59
  TRACK 430 AUDIO
    TITLE "LR_black_phrase_05_0430"
    INDEX 01 09:41:15
  TRACK 431 AUDIO
    TITLE "LR_black_phrase_05_0431"
    INDEX 01 09:43:06
  TRACK 432 AUDIO
    TITLE "LR_black_phrase_05_0432"
    INDEX 01 09:44:14
  TRACK 433 AUDIO
    TITLE "LR_black_phrase_05_0433"
    INDEX 01 09:45:33
  TRACK 434 AUDIO
    TITLE "LR_black_phrase_05_0434"
    INDEX 01 09:45:74
  TRACK 435 AUDIO
    TITLE "LR_black_phrase_05_0435"
    INDEX 01 09:47:67
  TRACK 436 AUDIO
    TITLE "LR_black_phrase_05_0436"
    INDEX 01 09:48:66
  TRACK 437 AUDIO
    TITLE "LR_black_phrase_05_0437"
    INDEX 01 09:51:59
  TRACK 438 AUDIO
    TITLE "LR_black_phrase_05_0438"
    INDEX 01 09:52:21
  TRACK 439 AUDIO
    TITLE "LR_black_phrase_05_0439"
    INDEX 01 09:55:43
  TRACK 440 AUDIO
    TITLE "LR_black_phrase_05_0440"
    INDEX 01 09:55:72
  TRACK 441 AUDIO
    TITLE "LR_black_phrase_05_0441"
    INDEX 01 09:59:19
  TRACK 442 AUDIO
    TITLE "LR_black_phrase_05_0442"
    INDEX 01 10:00:25
  TRACK 443 AUDIO
    TITLE "LR_black_phrase_05_0443"
    INDEX 01 10:01:55
  TRACK 444 AUDIO
    TITLE "LR_black_phrase_05_0444"
    INDEX 01 10:02:27
  TRACK 445 AUDIO
    TITLE "LR_black_phrase_05_0445"
    INDEX 01 10:03:58
  TRACK 446 AUDIO
    TITLE "LR_black_phrase_05_0446"
    INDEX 01 10:04:58
  TRACK 447 AUDIO
    TITLE "LR_black_phrase_05_0447"
    INDEX 01 10:07:17
  TRACK 448 AUDIO
    TITLE "LR_black_phrase_05_0448"
    INDEX 01 10:07:58
  TRACK 449 AUDIO
    TITLE "LR_black_phrase_05_0449"
    INDEX 01 10:10:33
  TRACK 450 AUDIO
    TITLE "LR_black_phrase_05_0450"
    INDEX 01 10:10:62
  TRACK 451 AUDIO
    TITLE "LR_black_phrase_05_0451"
    INDEX 01 10:13:39
  TRACK 452 AUDIO
    TITLE "LR_black_phrase_05_0452"
    INDEX 01 10:14:42
  TRACK 453 AUDIO
    TITLE "LR_black_phrase_05_0453"
    INDEX 01 10:16:04
  TRACK 454 AUDIO
    TITLE "LR_black_phrase_05_0454"
    INDEX 01 10:16:43
  TRACK 455 AUDIO
    TITLE "LR_black_phrase_05_0455"
    INDEX 01 10:17:70
  TRACK 456 AUDIO
    TITLE "LR_black_phrase_05_0456"
    INDEX 01 10:18:69
  TRACK 457 AUDIO
    TITLE "LR_black_phrase_05_0457"
    INDEX 01 10:21:21
  TRACK 458 AUDIO
    TITLE "LR_black_phrase_05_0458"
    INDEX 01 10:21:60
  TRACK 459 AUDIO
    TITLE "LR_black_phrase_05_0459"
    INDEX 01 10:24:39
  TRACK 460 AUDIO
    TITLE "LR_black_phrase_05_0460"
    INDEX 01 10:24:68
  TRACK 461 AUDIO
    TITLE "LR_black_phrase_05_0461"
    INDEX 01 10:27:45
  TRACK 462 AUDIO
    TITLE "LR_black_phrase_05_0462"
    INDEX 01 10:28:52
  TRACK 463 AUDIO
    TITLE "LR_black_phrase_05_0463"
    INDEX 01 10:29:63
  TRACK 464 AUDIO
    TITLE "LR_black_phrase_05_0464"
    INDEX 01 10:30:28
  TRACK 465 AUDIO
    TITLE "LR_black_phrase_05_0465"
    INDEX 01 10:31:39
  TRACK 466 AUDIO
    TITLE "LR_black_phrase_05_0466"
    INDEX 01 10:32:40
  TRACK 467 AUDIO
    TITLE "LR_black_phrase_05_0467"
    INDEX 01 10:33:59
  TRACK 468 AUDIO
    TITLE "LR_black_phrase_05_0468"
    INDEX 01 10:34:25
  TRACK 469 AUDIO
    TITLE "LR_black_phrase_05_0469"
    INDEX 01 10:36:05
  TRACK 470 AUDIO
    TITLE "LR_black_phrase_05_0470"
    INDEX 01 10:36:32
  TRACK 471 AUDIO
    TITLE "LR_black_phrase_05_0471"
    INDEX 01 10:38:11
  TRACK 472 AUDIO
    TITLE "LR_black_phrase_05_0472"
    INDEX 01 10:39:15
  TRACK 473 AUDIO
    TITLE "LR_black_phrase_05_0473"
    INDEX 01 10:40:30
  TRACK 474 AUDIO
    TITLE "LR_black_phrase_05_0474"
    INDEX 01 10:40:69
  TRACK 475 AUDIO
    TITLE "LR_black_phrase_05_0475"
    INDEX 01 10:42:07
  TRACK 476 AUDIO
    TITLE "LR_black_phrase_05_0476"
    INDEX 01 10:43:09
  TRACK 477 AUDIO
    TITLE "LR_black_phrase_05_0477"
    INDEX 01 10:44:41
  TRACK 478 AUDIO
    TITLE "LR_black_phrase_05_0478"
    INDEX 01 10:45:08
  TRACK 479 AUDIO
    TITLE "LR_black_phrase_05_0479"
    INDEX 01 10:47:03
  TRACK 480 AUDIO
    TITLE "LR_black_phrase_05_0480"
    INDEX 01 10:47:32
  TRACK 481 AUDIO
    TITLE "LR_black_phrase_05_0481"
    INDEX 01 10:49:29
  TRACK 482 AUDIO
    TITLE "LR_black_phrase_05_0482"
    INDEX 01 10:50:32
  TRACK 483 AUDIO
    TITLE "LR_black_phrase_05_0483"
    INDEX 01 10:51:36
  TRACK 484 AUDIO
    TITLE "LR_black_phrase_05_0484"
    INDEX 01 10:51:75
  TRACK 485 AUDIO
    TITLE "LR_black_phrase_05_0485"
    INDEX 01 10:54:42
  TRACK 486 AUDIO
    TITLE "LR_black_phrase_05_0486"
    INDEX 01 10:55:39
  TRACK 487 AUDIO
    TITLE "LR_black_phrase_05_0487"
    INDEX 01 10:57:19
  TRACK 488 AUDIO
    TITLE "LR_black_phrase_05_0488"
    INDEX 01 10:57:58
  TRACK 489 AUDIO
    TITLE "LR_black_phrase_05_0489"
    INDEX 01 10:59:49
  TRACK 490 AUDIO
    TITLE "LR_black_phrase_05_0490"
    INDEX 01 11:00:01
  TRACK 491 AUDIO
    TITLE "LR_black_phrase_05_0491"
    INDEX 01 11:01:69
  TRACK 492 AUDIO
    TITLE "LR_black_phrase_05_0492"
    INDEX 01 11:02:73
  TRACK 493 AUDIO
    TITLE "LR_black_phrase_05_0493"
    INDEX 01 11:04:13
  TRACK 494 AUDIO
    TITLE "LR_black_phrase_05_0494"
    INDEX 01 11:04:52
  TRACK 495 AUDIO
    TITLE "LR_black_phrase_05_0495"
    INDEX 01 11:07:23
  TRACK 496 AUDIO
    TITLE "LR_black_phrase_05_0496"
    INDEX 01 11:08:22
  TRACK 497 AUDIO
    TITLE "LR_black_phrase_05_0497"
    INDEX 01 11:10:21
  TRACK 498 AUDIO
    TITLE "LR_black_phrase_05_0498"
    INDEX 01 11:10:60
  TRACK 499 AUDIO
    TITLE "LR_black_phrase_05_0499"
    INDEX 01 11:12:57
  TRACK 500 AUDIO
    TITLE "LR_black_phrase_05_0500"
    INDEX 01 11:13:12
  TRACK 501 AUDIO
    TITLE "LR_black_phrase_05_0501"
    INDEX 01 11:15:11
  TRACK 502 AUDIO
    TITLE "LR_black_phrase_05_0502"
    INDEX 01 11:16:10
  TRACK 503 AUDIO
    TITLE "LR_black_phrase_05_0503"
    INDEX 01 11:17:17
  TRACK 504 AUDIO
    TITLE "LR_black_phrase_05_0504"
    INDEX 01 11:17:57
  TRACK 505 AUDIO
    TITLE "LR_black_phrase_05_0505"
    INDEX 01 11:19:14
  TRACK 506 AUDIO
    TITLE "LR_black_phrase_05_0506"
    INDEX 01 11:20:12
  TRACK 507 AUDIO
    TITLE "LR_black_phrase_05_0507"
    INDEX 01 11:23:14
  TRACK 508 AUDIO
    TITLE "LR_black_phrase_05_0508"
    INDEX 01 11:23:47
  TRACK 509 AUDIO
    TITLE "LR_black_phrase_05_0509"
    INDEX 01 11:25:44
  TRACK 510 AUDIO
    TITLE "LR_black_phrase_05_0510"
    INDEX 01 11:25:64
  TRACK 511 AUDIO
    TITLE "LR_black_phrase_05_0511"
    INDEX 01 11:27:63
  TRACK 512 AUDIO
    TITLE "LR_black_phrase_05_0512"
    INDEX 01 11:28:56
  TRACK 513 AUDIO
    TITLE "LR_black_phrase_05_0513"
    INDEX 01 11:30:14
  TRACK 514 AUDIO
    TITLE "LR_black_phrase_05_0514"
    INDEX 01 11:30:49
  TRACK 515 AUDIO
    TITLE "LR_black_phrase_05_0515"
    INDEX 01 11:33:38
  TRACK 516 AUDIO
    TITLE "LR_black_phrase_05_0516"
    INDEX 01 11:34:43
  TRACK 517 AUDIO
    TITLE "LR_black_phrase_05_0517"
    INDEX 01 11:36:42
  TRACK 518 AUDIO
    TITLE "LR_black_phrase_05_0518"
    INDEX 01 11:37:04
  TRACK 519 AUDIO
    TITLE "LR_black_phrase_05_0519"
    INDEX 01 11:39:25
  TRACK 520 AUDIO
    TITLE "LR_black_phrase_05_0520"
    INDEX 01 11:39:42
  TRACK 521 AUDIO
    TITLE "LR_black_phrase_05_0521"
    INDEX 01 11:41:65
  TRACK 522 AUDIO
    TITLE "LR_black_phrase_05_0522"
    INDEX 01 11:42:56
  TRACK 523 AUDIO
    TITLE "LR_black_phrase_05_0523"
    INDEX 01 11:43:64
  TRACK 524 AUDIO
    TITLE "LR_black_phrase_05_0524"
    INDEX 01 11:44:26
  TRACK 525 AUDIO
    TITLE "LR_black_phrase_05_0525"
    INDEX 01 11:47:30
  TRACK 526 AUDIO
    TITLE "LR_black_phrase_05_0526"
    INDEX 01 11:48:30
  TRACK 527 AUDIO
    TITLE "LR_black_phrase_05_0527"
    INDEX 01 11:52:10
  TRACK 528 AUDIO
    TITLE "LR_black_phrase_05_0528"
    INDEX 01 11:52:45
  TRACK 529 AUDIO
    TITLE "LR_black_phrase_05_0529"
    INDEX 01 11:55:36
  TRACK 530 AUDIO
    TITLE "LR_black_phrase_05_0530"
    INDEX 01 11:55:57
  TRACK 531 AUDIO
    TITLE "LR_black_phrase_05_0531"
    INDEX 01 11:58:48
  TRACK 532 AUDIO
    TITLE "LR_black_phrase_05_0532"
    INDEX 01 11:59:45
  TRACK 533 AUDIO
    TITLE "LR_black_phrase_05_0533"
    INDEX 01 12:00:58
  TRACK 534 AUDIO
    TITLE "LR_black_phrase_05_0534"
    INDEX 01 12:01:17
  TRACK 535 AUDIO
    TITLE "LR_black_phrase_05_0535"
    INDEX 01 12:04:46
  TRACK 536 AUDIO
    TITLE "LR_black_phrase_05_0536"
    INDEX 01 12:05:44
  TRACK 537 AUDIO
    TITLE "LR_black_phrase_05_0537"
    INDEX 01 12:07:15
  TRACK 538 AUDIO
    TITLE "LR_black_phrase_05_0538"
    INDEX 01 12:07:49
  TRACK 539 AUDIO
    TITLE "LR_black_phrase_05_0539"
    INDEX 01 12:09:57
  TRACK 540 AUDIO
    TITLE "LR_black_phrase_05_0540"
    INDEX 01 12:10:04
  TRACK 541 AUDIO
    TITLE "LR_black_phrase_05_0541"
    INDEX 01 12:12:12
  TRACK 542 AUDIO
    TITLE "LR_black_phrase_05_0542"
    INDEX 01 12:13:10
  TRACK 543 AUDIO
    TITLE "LR_black_phrase_05_0543"
    INDEX 01 12:14:13
  TRACK 544 AUDIO
    TITLE "LR_black_phrase_05_0544"
    INDEX 01 12:14:53
  TRACK 545 AUDIO
    TITLE "LR_black_phrase_05_0545"
    INDEX 01 12:16:57
  TRACK 546 AUDIO
    TITLE "LR_black_phrase_05_0546"
    INDEX 01 12:17:57
  TRACK 547 AUDIO
    TITLE "LR_black_phrase_05_0547"
    INDEX 01 12:20:24
  TRACK 548 AUDIO
    TITLE "LR_black_phrase_05_0548"
    INDEX 01 12:20:57
  TRACK 549 AUDIO
    TITLE "LR_black_phrase_05_0549"
    INDEX 01 12:23:01
  TRACK 550 AUDIO
    TITLE "LR_black_phrase_05_0550"
    INDEX 01 12:23:20
  TRACK 551 AUDIO
    TITLE "LR_black_phrase_05_0551"
    INDEX 01 12:25:39
  TRACK 552 AUDIO
    TITLE "LR_black_phrase_05_0552"
    INDEX 01 12:26:32
  TRACK 553 AUDIO
    TITLE "LR_black_phrase_05_0553"
    INDEX 01 12:27:55
  TRACK 554 AUDIO
    TITLE "LR_black_phrase_05_0554"
    INDEX 01 12:28:17
  TRACK 555 AUDIO
    TITLE "LR_black_phrase_05_0555"
    INDEX 01 12:30:34
  TRACK 556 AUDIO
    TITLE "LR_black_phrase_05_0556"
    INDEX 01 12:31:31
  TRACK 557 AUDIO
    TITLE "LR_black_phrase_05_0557"
    INDEX 01 12:33:44
  TRACK 558 AUDIO
    TITLE "LR_black_phrase_05_0558"
    INDEX 01 12:34:04
  TRACK 559 AUDIO
    TITLE "LR_black_phrase_05_0559"
    INDEX 01 12:36:40
  TRACK 560 AUDIO
    TITLE "LR_black_phrase_05_0560"
    INDEX 01 12:36:60
  TRACK 561 AUDIO
    TITLE "LR_black_phrase_05_0561"
    INDEX 01 12:39:21
  TRACK 562 AUDIO
    TITLE "LR_black_phrase_05_0562"
    INDEX 01 12:40:15
  TRACK 563 AUDIO
    TITLE "LR_black_phrase_05_0563"
    INDEX 01 12:41:22
  TRACK 564 AUDIO
    TITLE "LR_black_phrase_05_0564"
    INDEX 01 12:41:57
  TRACK 565 AUDIO
    TITLE "LR_black_phrase_05_0565"
    INDEX 01 12:43:37
  TRACK 566 AUDIO
    TITLE "LR_black_phrase_05_0566"
    INDEX 01 12:44:34
  TRACK 567 AUDIO
    TITLE "LR_black_phrase_05_0567"
    INDEX 01 12:46:31
  TRACK 568 AUDIO
    TITLE "LR_black_phrase_05_0568"
    INDEX 01 12:46:64
  TRACK 569 AUDIO
    TITLE "LR_black_phrase_05_0569"
    INDEX 01 12:48:42
  TRACK 570 AUDIO
    TITLE "LR_black_phrase_05_0570"
    INDEX 01 12:48:63
  TRACK 571 AUDIO
    TITLE "LR_black_phrase_05_0571"
    INDEX 01 12:50:39
  TRACK 572 AUDIO
    TITLE "LR_black_phrase_05_0572"
    INDEX 01 12:51:36
  TRACK 573 AUDIO
    TITLE "LR_black_phrase_05_0573"
    INDEX 01 12:52:53
  TRACK 574 AUDIO
    TITLE "LR_black_phrase_05_0574"
    INDEX 01 12:53:15
  TRACK 575 AUDIO
    TITLE "LR_black_phrase_05_0575"
    INDEX 01 12:57:27
  TRACK 576 AUDIO
    TITLE "LR_black_phrase_05_0576"
    INDEX 01 12:58:24
  TRACK 577 AUDIO
    TITLE "LR_black_phrase_05_0577"
    INDEX 01 13:00:49
  TRACK 578 AUDIO
    TITLE "LR_black_phrase_05_0578"
    INDEX 01 13:01:07
  TRACK 579 AUDIO
    TITLE "LR_black_phrase_05_0579"
    INDEX 01 13:03:06
  TRACK 580 AUDIO
    TITLE "LR_black_phrase_05_0580"
    INDEX 01 13:03:28
  TRACK 581 AUDIO
    TITLE "LR_black_phrase_05_0581"
    INDEX 01 13:05:24
  TRACK 582 AUDIO
    TITLE "LR_black_phrase_05_0582"
    INDEX 01 13:06:22
  TRACK 583 AUDIO
    TITLE "LR_black_phrase_05_0583"
    INDEX 01 13:07:39
  TRACK 584 AUDIO
    TITLE "LR_black_phrase_05_0584"
    INDEX 01 13:07:74
  TRACK 585 AUDIO
    TITLE "LR_black_phrase_05_0585"
    INDEX 01 13:10:33
  TRACK 586 AUDIO
    TITLE "LR_black_phrase_05_0586"
    INDEX 01 13:11:33
  TRACK 587 AUDIO
    TITLE "LR_black_phrase_05_0587"
    INDEX 01 13:14:12
  TRACK 588 AUDIO
    TITLE "LR_black_phrase_05_0588"
    INDEX 01 13:14:45
  TRACK 589 AUDIO
    TITLE "LR_black_phrase_05_0589"
    INDEX 01 13:17:22
  TRACK 590 AUDIO
    TITLE "LR_black_phrase_05_0590"
    INDEX 01 13:17:41
  TRACK 591 AUDIO
    TITLE "LR_black_phrase_05_0591"
    INDEX 01 13:20:20
  TRACK 592 AUDIO
    TITLE "LR_black_phrase_05_0592"
    INDEX 01 13:21:16
  TRACK 593 AUDIO
    TITLE "LR_black_phrase_05_0593"
    INDEX 01 13:22:41
  TRACK 594 AUDIO
    TITLE "LR_black_phrase_05_0594"
    INDEX 01 13:23:03
  TRACK 595 AUDIO
    TITLE "LR_black_phrase_05_0595"
    INDEX 01 13:25:15
  TRACK 596 AUDIO
    TITLE "LR_black_phrase_05_0596"
    INDEX 01 13:26:19
  TRACK 597 AUDIO
    TITLE "LR_black_phrase_05_0597"
    INDEX 01 13:27:65
  TRACK 598 AUDIO
    TITLE "LR_black_phrase_05_0598"
    INDEX 01 13:28:25
  TRACK 599 AUDIO
    TITLE "LR_black_phrase_05_0599"
    INDEX 01 13:30:22
  TRACK 600 AUDIO
    TITLE "LR_black_phrase_05_0600"
    INDEX 01 13:30:46
  TRACK 601 AUDIO
    TITLE "LR_black_phrase_05_0601"
    INDEX 01 13:32:41
  TRACK 602 AUDIO
    TITLE "LR_black_phrase_05_0602"
    INDEX 01 13:33:44
  TRACK 603 AUDIO
    TITLE "LR_black_phrase_05_0603"
    INDEX 01 13:34:61
  TRACK 604 AUDIO
    TITLE "LR_black_phrase_05_0604"
    INDEX 01 13:35:28
  TRACK 605 AUDIO
    TITLE "LR_black_phrase_05_0605"
    INDEX 01 13:38:22
  TRACK 606 AUDIO
    TITLE "LR_black_phrase_05_0606"
    INDEX 01 13:39:21
  TRACK 607 AUDIO
    TITLE "LR_black_phrase_05_0607"
    INDEX 01 13:42:14
  TRACK 608 AUDIO
    TITLE "LR_black_phrase_05_0608"
    INDEX 01 13:42:51
  TRACK 609 AUDIO
    TITLE "LR_black_phrase_05_0609"
    INDEX 01 13:45:24
  TRACK 610 AUDIO
    TITLE "LR_black_phrase_05_0610"
    INDEX 01 13:45:57
  TRACK 611 AUDIO
    TITLE "LR_black_phrase_05_0611"
    INDEX 01 13:48:28
  TRACK 612 AUDIO
    TITLE "LR_black_phrase_05_0612"
    INDEX 01 13:49:37
  TRACK 613 AUDIO
    TITLE "LR_black_phrase_05_0613"
    INDEX 01 13:50:62
  TRACK 614 AUDIO
    TITLE "LR_black_phrase_05_0614"
    INDEX 01 13:51:27
  TRACK 615 AUDIO
    TITLE "LR_black_phrase_05_0615"
    INDEX 01 13:54:15
  TRACK 616 AUDIO
    TITLE "LR_black_phrase_05_0616"
    INDEX 01 13:55:15
  TRACK 617 AUDIO
    TITLE "LR_black_phrase_05_0617"
    INDEX 01 13:56:75
  TRACK 618 AUDIO
    TITLE "LR_black_phrase_05_0618"
    INDEX 01 13:57:39
  TRACK 619 AUDIO
    TITLE "LR_black_phrase_05_0619"
    INDEX 01 14:00:04
  TRACK 620 AUDIO
    TITLE "LR_black_phrase_05_0620"
    INDEX 01 14:00:37
  TRACK 621 AUDIO
    TITLE "LR_black_phrase_05_0621"
    INDEX 01 14:03:02
  TRACK 622 AUDIO
    TITLE "LR_black_phrase_05_0622"
    INDEX 01 14:04:10
  TRACK 623 AUDIO
    TITLE "LR_black_phrase_05_0623"
    INDEX 01 14:05:33
  TRACK 624 AUDIO
    TITLE "LR_black_phrase_05_0624"
    INDEX 01 14:05:72
  TRACK 625 AUDIO
    TITLE "LR_black_phrase_05_0625"
    INDEX 01 14:07:29
  TRACK 626 AUDIO
    TITLE "LR_black_phrase_05_0626"
    INDEX 01 14:08:27
  TRACK 627 AUDIO
    TITLE "LR_black_phrase_05_0627"
    INDEX 01 14:10:16
  TRACK 628 AUDIO
    TITLE "LR_black_phrase_05_0628"
    INDEX 01 14:10:53
  TRACK 629 AUDIO
    TITLE "LR_black_phrase_05_0629"
    INDEX 01 14:12:40
  TRACK 630 AUDIO
    TITLE "LR_black_phrase_05_0630"
    INDEX 01 14:13:01
  TRACK 631 AUDIO
    TITLE "LR_black_phrase_05_0631"
    INDEX 01 14:14:55
  TRACK 632 AUDIO
    TITLE "LR_black_phrase_05_0632"
    INDEX 01 14:15:60
  TRACK 633 AUDIO
    TITLE "LR_black_phrase_05_0633"
    INDEX 01 14:17:04
  TRACK 634 AUDIO
    TITLE "LR_black_phrase_05_0634"
    INDEX 01 14:17:42
  TRACK 635 AUDIO
    TITLE "LR_black_phrase_05_0635"
    INDEX 01 14:19:40
  TRACK 636 AUDIO
    TITLE "LR_black_phrase_05_0636"
    INDEX 01 14:20:40
  TRACK 637 AUDIO
    TITLE "LR_black_phrase_05_0637"
    INDEX 01 14:25:02
  TRACK 638 AUDIO
    TITLE "LR_black_phrase_05_0638"
    INDEX 01 14:25:43
  TRACK 639 AUDIO
    TITLE "LR_black_phrase_05_0639"
    INDEX 01 14:29:15
  TRACK 640 AUDIO
    TITLE "LR_black_phrase_05_0640"
    INDEX 01 14:29:45
  TRACK 641 AUDIO
    TITLE "LR_black_phrase_05_0641"
    INDEX 01 14:33:17
  TRACK 642 AUDIO
    TITLE "LR_black_phrase_05_0642"
    INDEX 01 14:34:22
  TRACK 643 AUDIO
    TITLE "LR_black_phrase_05_0643"
    INDEX 01 14:35:43
  TRACK 644 AUDIO
    TITLE "LR_black_phrase_05_0644"
    INDEX 01 14:36:10
  TRACK 645 AUDIO
    TITLE "LR_black_phrase_05_0645"
    INDEX 01 14:38:16
  TRACK 646 AUDIO
    TITLE "LR_black_phrase_05_0646"
    INDEX 01 14:39:18
  TRACK 647 AUDIO
    TITLE "LR_black_phrase_05_0647"
    INDEX 01 14:41:38
  TRACK 648 AUDIO
    TITLE "LR_black_phrase_05_0648"
    INDEX 01 14:42:02
  TRACK 649 AUDIO
    TITLE "LR_black_phrase_05_0649"
    INDEX 01 14:44:70
  TRACK 650 AUDIO
    TITLE "LR_black_phrase_05_0650"
    INDEX 01 14:45:26
  TRACK 651 AUDIO
    TITLE "LR_black_phrase_05_0651"
    INDEX 01 14:48:17
  TRACK 652 AUDIO
    TITLE "LR_black_phrase_05_0652"
    INDEX 01 14:49:22
  TRACK 653 AUDIO
    TITLE "LR_black_phrase_05_0653"
    INDEX 01 14:50:25
  TRACK 654 AUDIO
    TITLE "LR_black_phrase_05_0654"
    INDEX 01 14:50:66
  TRACK 655 AUDIO
    TITLE "LR_black_phrase_05_0655"
    INDEX 01 14:52:30
  TRACK 656 AUDIO
    TITLE "LR_black_phrase_05_0656"
    INDEX 01 14:53:30
  TRACK 657 AUDIO
    TITLE "LR_black_phrase_05_0657"
    INDEX 01 14:55:28
  TRACK 658 AUDIO
    TITLE "LR_black_phrase_05_0658"
    INDEX 01 14:55:68
  TRACK 659 AUDIO
    TITLE "LR_black_phrase_05_0659"
    INDEX 01 14:58:23
  TRACK 660 AUDIO
    TITLE "LR_black_phrase_05_0660"
    INDEX 01 14:58:52
  TRACK 661 AUDIO
    TITLE "LR_black_phrase_05_0661"
    INDEX 01 15:01:08
  TRACK 662 AUDIO
    TITLE "LR_black_phrase_05_0662"
    INDEX 01 15:02:11
  TRACK 663 AUDIO
    TITLE "LR_black_phrase_05_0663"
    INDEX 01 15:03:32
  TRACK 664 AUDIO
    TITLE "LR_black_phrase_05_0664"
    INDEX 01 15:03:73
  TRACK 665 AUDIO
    TITLE "LR_black_phrase_05_0665"
    INDEX 01 15:07:71
  TRACK 666 AUDIO
    TITLE "LR_black_phrase_05_0666"
    INDEX 01 15:08:72
  TRACK 667 AUDIO
    TITLE "LR_black_phrase_05_0667"
    INDEX 01 15:10:50
  TRACK 668 AUDIO
    TITLE "LR_black_phrase_05_0668"
    INDEX 01 15:11:14
  TRACK 669 AUDIO
    TITLE "LR_black_phrase_05_0669"
    INDEX 01 15:13:01
  TRACK 670 AUDIO
    TITLE "LR_black_phrase_05_0670"
    INDEX 01 15:13:30
  TRACK 671 AUDIO
    TITLE "LR_black_phrase_05_0671"
    INDEX 01 15:15:16
  TRACK 672 AUDIO
    TITLE "LR_black_phrase_05_0672"
    INDEX 01 15:16:19
  TRACK 673 AUDIO
    TITLE "LR_black_phrase_05_0673"
    INDEX 01 15:17:48
  TRACK 674 AUDIO
    TITLE "LR_black_phrase_05_0674"
    INDEX 01 15:18:14
  TRACK 675 AUDIO
    TITLE "LR_black_phrase_05_0675"
    INDEX 01 15:21:24
  TRACK 676 AUDIO
    TITLE "LR_black_phrase_05_0676"
    INDEX 01 15:22:21
  TRACK 677 AUDIO
    TITLE "LR_black_phrase_05_0677"
    INDEX 01 15:24:58
  TRACK 678 AUDIO
    TITLE "LR_black_phrase_05_0678"
    INDEX 01 15:25:20
  TRACK 679 AUDIO
    TITLE "LR_black_phrase_05_0679"
    INDEX 01 15:28:01
  TRACK 680 AUDIO
    TITLE "LR_black_phrase_05_0680"
    INDEX 01 15:28:28
  TRACK 681 AUDIO
    TITLE "LR_black_phrase_05_0681"
    INDEX 01 15:31:07
  TRACK 682 AUDIO
    TITLE "LR_black_phrase_05_0682"
    INDEX 01 15:32:10
  TRACK 683 AUDIO
    TITLE "LR_black_phrase_05_0683"
    INDEX 01 15:33:23
  TRACK 684 AUDIO
    TITLE "LR_black_phrase_05_0684"
    INDEX 01 15:33:62
  TRACK 685 AUDIO
    TITLE "LR_black_phrase_05_0685"
    INDEX 01 15:36:24
  TRACK 686 AUDIO
    TITLE "LR_black_phrase_05_0686"
    INDEX 01 15:37:25
  TRACK 687 AUDIO
    TITLE "LR_black_phrase_05_0687"
    INDEX 01 15:39:06
  TRACK 688 AUDIO
    TITLE "LR_black_phrase_05_0688"
    INDEX 01 15:39:43
  TRACK 689 AUDIO
    TITLE "LR_black_phrase_05_0689"
    INDEX 01 15:41:42
  TRACK 690 AUDIO
    TITLE "LR_black_phrase_05_0690"
    INDEX 01 15:41:72
  TRACK 691 AUDIO
    TITLE "LR_black_phrase_05_0691"
    INDEX 01 15:43:71
  TRACK 692 AUDIO
    TITLE "LR_black_phrase_05_0692"
    INDEX 01 15:44:74
  TRACK 693 AUDIO
    TITLE "LR_black_phrase_05_0693"
    INDEX 01 15:46:12
  TRACK 694 AUDIO
    TITLE "LR_black_phrase_05_0694"
    INDEX 01 15:46:51
  TRACK 695 AUDIO
    TITLE "LR_black_phrase_05_0695"
    INDEX 01 15:48:58
  TRACK 696 AUDIO
    TITLE "LR_black_phrase_05_0696"
    INDEX 01 15:49:57
  TRACK 697 AUDIO
    TITLE "LR_black_phrase_05_0697"
    INDEX 01 15:51:58
  TRACK 698 AUDIO
    TITLE "LR_black_phrase_05_0698"
    INDEX 01 15:52:25
  TRACK 699 AUDIO
    TITLE "LR_black_phrase_05_0699"
    INDEX 01 15:54:18
  TRACK 700 AUDIO
    TITLE "LR_black_phrase_05_0700"
    INDEX 01 15:54:45
  TRACK 701 AUDIO
    TITLE "LR_black_phrase_05_0701"
    INDEX 01 15:56:44
  TRACK 702 AUDIO
    TITLE "LR_black_phrase_05_0702"
    INDEX 01 15:57:41
  TRACK 703 AUDIO
    TITLE "LR_black_phrase_05_0703"
    INDEX 01 15:58:64
  TRACK 704 AUDIO
    TITLE "LR_black_phrase_05_0704"
    INDEX 01 15:59:25
  TRACK 705 AUDIO
    TITLE "LR_black_phrase_05_0705"
    INDEX 01 16:00:48
  TRACK 706 AUDIO
    TITLE "LR_black_phrase_05_0706"
    INDEX 01 16:01:45
  TRACK 707 AUDIO
    TITLE "LR_black_phrase_05_0707"
    INDEX 01 16:05:29
  TRACK 708 AUDIO
    TITLE "LR_black_phrase_05_0708"
    INDEX 01 16:05:66
  TRACK 709 AUDIO
    TITLE "LR_black_phrase_05_0709"
    INDEX 01 16:09:15
  TRACK 710 AUDIO
    TITLE "LR_black_phrase_05_0710"
    INDEX 01 16:09:41
  TRACK 711 AUDIO
    TITLE "LR_black_phrase_05_0711"
    INDEX 01 16:12:62
  TRACK 712 AUDIO
    TITLE "LR_black_phrase_05_0712"
    INDEX 01 16:13:56
  TRACK 713 AUDIO
    TITLE "LR_black_phrase_05_0713"
    INDEX 01 16:15:08
  TRACK 714 AUDIO
    TITLE "LR_black_phrase_05_0714"
    INDEX 01 16:15:43
  TRACK 715 AUDIO
    TITLE "LR_black_phrase_05_0715"
    INDEX 01 16:17:71
  TRACK 716 AUDIO
    TITLE "LR_black_phrase_05_0716"
    INDEX 01 16:18:69
  TRACK 717 AUDIO
    TITLE "LR_black_phrase_05_0717"
    INDEX 01 16:20:46
  TRACK 718 AUDIO
    TITLE "LR_black_phrase_05_0718"
    INDEX 01 16:21:05
  TRACK 719 AUDIO
    TITLE "LR_black_phrase_05_0719"
    INDEX 01 16:23:17
  TRACK 720 AUDIO
    TITLE "LR_black_phrase_05_0720"
    INDEX 01 16:23:37
  TRACK 721 AUDIO
    TITLE "LR_black_phrase_05_0721"
    INDEX 01 16:25:51
  TRACK 722 AUDIO
    TITLE "LR_black_phrase_05_0722"
    INDEX 01 16:26:45
  TRACK 723 AUDIO
    TITLE "LR_black_phrase_05_0723"
    INDEX 01 16:27:52
  TRACK 724 AUDIO
    TITLE "LR_black_phrase_05_0724"
    INDEX 01 16:28:12
  TRACK 725 AUDIO
    TITLE "LR_black_phrase_05_0725"
    INDEX 01 16:29:47
  TRACK 726 AUDIO
    TITLE "LR_black_phrase_05_0726"
    INDEX 01 16:30:53
  TRACK 727 AUDIO
    TITLE "LR_black_phrase_05_0727"
    INDEX 01 16:32:42
  TRACK 728 AUDIO
    TITLE "LR_black_phrase_05_0728"
    INDEX 01 16:33:02
  TRACK 729 AUDIO
    TITLE "LR_black_phrase_05_0729"
    INDEX 01 16:34:54
  TRACK 730 AUDIO
    TITLE "LR_black_phrase_05_0730"
    INDEX 01 16:34:74
  TRACK 731 AUDIO
    TITLE "LR_black_phrase_05_0731"
    INDEX 01 16:36:53
  TRACK 732 AUDIO
    TITLE "LR_black_phrase_05_0732"
    INDEX 01 16:37:47
  TRACK 733 AUDIO
    TITLE "LR_black_phrase_05_0733"
    INDEX 01 16:38:50
  TRACK 734 AUDIO
    TITLE "LR_black_phrase_05_0734"
    INDEX 01 16:39:10
  TRACK 735 AUDIO
    TITLE "LR_black_phrase_05_0735"
    INDEX 01 16:40:20
  TRACK 736 AUDIO
    TITLE "LR_black_phrase_05_0736"
    INDEX 01 16:41:19
  TRACK 737 AUDIO
    TITLE "LR_black_phrase_05_0737"
    INDEX 01 16:43:32
  TRACK 738 AUDIO
    TITLE "LR_black_phrase_05_0738"
    INDEX 01 16:43:65
  TRACK 739 AUDIO
    TITLE "LR_black_phrase_05_0739"
    INDEX 01 16:46:08
  TRACK 740 AUDIO
    TITLE "LR_black_phrase_05_0740"
    INDEX 01 16:46:26
  TRACK 741 AUDIO
    TITLE "LR_black_phrase_05_0741"
    INDEX 01 16:48:45
  TRACK 742 AUDIO
    TITLE "LR_black_phrase_05_0742"
    INDEX 01 16:49:40
  TRACK 743 AUDIO
    TITLE "LR_black_phrase_05_0743"
    INDEX 01 16:50:55
  TRACK 744 AUDIO
    TITLE "LR_black_phrase_05_0744"
    INDEX 01 16:51:27
  TRACK 745 AUDIO
    TITLE "LR_black_phrase_05_0745"
    INDEX 01 16:53:69
  TRACK 746 AUDIO
    TITLE "LR_black_phrase_05_0746"
    INDEX 01 16:54:71
  TRACK 747 AUDIO
    TITLE "LR_black_phrase_05_0747"
    INDEX 01 16:57:06
  TRACK 748 AUDIO
    TITLE "LR_black_phrase_05_0748"
    INDEX 01 16:57:40
  TRACK 749 AUDIO
    TITLE "LR_black_phrase_05_0749"
    INDEX 01 16:59:52
  TRACK 750 AUDIO
    TITLE "LR_black_phrase_05_0750"
    INDEX 01 17:00:03
  TRACK 751 AUDIO
    TITLE "LR_black_phrase_05_0751"
    INDEX 01 17:02:13
  TRACK 752 AUDIO
    TITLE "LR_black_phrase_05_0752"
    INDEX 01 17:03:15
  TRACK 753 AUDIO
    TITLE "LR_black_phrase_05_0753"
    INDEX 01 17:04:36
  TRACK 754 AUDIO
    TITLE "LR_black_phrase_05_0754"
    INDEX 01 17:04:73
  TRACK 755 AUDIO
    TITLE "LR_black_phrase_05_0755"
    INDEX 01 17:05:63
  TRACK 756 AUDIO
    TITLE "LR_black_phrase_05_0756"
    INDEX 01 17:06:64
  TRACK 757 AUDIO
    TITLE "LR_black_phrase_05_0757"
    INDEX 01 17:08:32
  TRACK 758 AUDIO
    TITLE "LR_black_phrase_05_0758"
    INDEX 01 17:08:67
  TRACK 759 AUDIO
    TITLE "LR_black_phrase_05_0759"
    INDEX 01 17:11:01
  TRACK 760 AUDIO
    TITLE "LR_black_phrase_05_0760"
    INDEX 01 17:11:28
  TRACK 761 AUDIO
    TITLE "LR_black_phrase_05_0761"
    INDEX 01 17:13:37
  TRACK 762 AUDIO
    TITLE "LR_black_phrase_05_0762"
    INDEX 01 17:14:42
  TRACK 763 AUDIO
    TITLE "LR_black_phrase_05_0763"
    INDEX 01 17:15:49
  TRACK 764 AUDIO
    TITLE "LR_black_phrase_05_0764"
    INDEX 01 17:16:08
  TRACK 765 AUDIO
    TITLE "LR_black_phrase_05_0765"
    INDEX 01 17:18:69
  TRACK 766 AUDIO
    TITLE "LR_black_phrase_05_0766"
    INDEX 01 17:19:69
  TRACK 767 AUDIO
    TITLE "LR_black_phrase_05_0767"
    INDEX 01 17:21:66
  TRACK 768 AUDIO
    TITLE "LR_black_phrase_05_0768"
    INDEX 01 17:22:24
  TRACK 769 AUDIO
    TITLE "LR_black_phrase_05_0769"
    INDEX 01 17:24:17
  TRACK 770 AUDIO
    TITLE "LR_black_phrase_05_0770"
    INDEX 01 17:24:37
  TRACK 771 AUDIO
    TITLE "LR_black_phrase_05_0771"
    INDEX 01 17:26:30
  TRACK 772 AUDIO
    TITLE "LR_black_phrase_05_0772"
    INDEX 01 17:27:25
  TRACK 773 AUDIO
    TITLE "LR_black_phrase_05_0773"
    INDEX 01 17:28:28
  TRACK 774 AUDIO
    TITLE "LR_black_phrase_05_0774"
    INDEX 01 17:28:62
  TRACK 775 AUDIO
    TITLE "LR_black_phrase_05_0775"
    INDEX 01 17:30:74
  TRACK 776 AUDIO
    TITLE "LR_black_phrase_05_0776"
    INDEX 01 17:31:72
  TRACK 777 AUDIO
    TITLE "LR_black_phrase_05_0777"
    INDEX 01 17:33:37
  TRACK 778 AUDIO
    TITLE "LR_black_phrase_05_0778"
    INDEX 01 17:33:69
  TRACK 779 AUDIO
    TITLE "LR_black_phrase_05_0779"
    INDEX 01 17:35:46
  TRACK 780 AUDIO
    TITLE "LR_black_phrase_05_0780"
    INDEX 01 17:35:68
  TRACK 781 AUDIO
    TITLE "LR_black_phrase_05_0781"
    INDEX 01 17:37:43
  TRACK 782 AUDIO
    TITLE "LR_black_phrase_05_0782"
    INDEX 01 17:38:42
  TRACK 783 AUDIO
    TITLE "LR_black_phrase_05_0783"
    INDEX 01 17:39:62
  TRACK 784 AUDIO
    TITLE "LR_black_phrase_05_0784"
    INDEX 01 17:40:24
  TRACK 785 AUDIO
    TITLE "LR_black_phrase_05_0785"
    INDEX 01 17:42:40
  TRACK 786 AUDIO
    TITLE "LR_black_phrase_05_0786"
    INDEX 01 17:43:32
  TRACK 787 AUDIO
    TITLE "LR_black_phrase_05_0787"
    INDEX 01 17:44:73
  TRACK 788 AUDIO
    TITLE "LR_black_phrase_05_0788"
    INDEX 01 17:45:33
  TRACK 789 AUDIO
    TITLE "LR_black_phrase_05_0789"
    INDEX 01 17:47:55
  TRACK 790 AUDIO
    TITLE "LR_black_phrase_05_0790"
    INDEX 01 17:47:75
  TRACK 791 AUDIO
    TITLE "LR_black_phrase_05_0791"
    INDEX 01 17:50:22
  TRACK 792 AUDIO
    TITLE "LR_black_phrase_05_0792"
    INDEX 01 17:51:20
  TRACK 793 AUDIO
    TITLE "LR_black_phrase_05_0793"
    INDEX 01 17:52:45
  TRACK 794 AUDIO
    TITLE "LR_black_phrase_05_0794"
    INDEX 01 17:53:05
  TRACK 795 AUDIO
    TITLE "LR_black_phrase_05_0795"
    INDEX 01 17:55:45
  TRACK 796 AUDIO
    TITLE "LR_black_phrase_05_0796"
    INDEX 01 17:56:42
  TRACK 797 AUDIO
    TITLE "LR_black_phrase_05_0797"
    INDEX 01 17:59:05
  TRACK 798 AUDIO
    TITLE "LR_black_phrase_05_0798"
    INDEX 01 17:59:37
  TRACK 799 AUDIO
    TITLE "LR_black_phrase_05_0799"
    INDEX 01 18:01:59
  TRACK 800 AUDIO
    TITLE "LR_black_phrase_05_0800"
    INDEX 01 18:02:02
  TRACK 801 AUDIO
    TITLE "LR_black_phrase_05_0801"
    INDEX 01 18:04:24
  TRACK 802 AUDIO
    TITLE "LR_black_phrase_05_0802"
    INDEX 01 18:05:22
  TRACK 803 AUDIO
    TITLE "LR_black_phrase_05_0803"
    INDEX 01 18:06:53
  TRACK 804 AUDIO
    TITLE "LR_black_phrase_05_0804"
    INDEX 01 18:07:21
  TRACK 805 AUDIO
    TITLE "LR_black_phrase_05_0805"
    INDEX 01 18:09:51
  TRACK 806 AUDIO
    TITLE "LR_black_phrase_05_0806"
    INDEX 01 18:10:50
  TRACK 807 AUDIO
    TITLE "LR_black_phrase_05_0807"
    INDEX 01 18:13:06
  TRACK 808 AUDIO
    TITLE "LR_black_phrase_05_0808"
    INDEX 01 18:13:45
  TRACK 809 AUDIO
    TITLE "LR_black_phrase_05_0809"
    INDEX 01 18:15:53
  TRACK 810 AUDIO
    TITLE "LR_black_phrase_05_0810"
    INDEX 01 18:16:02
  TRACK 811 AUDIO
    TITLE "LR_black_phrase_05_0811"
    INDEX 01 18:18:11
  TRACK 812 AUDIO
    TITLE "LR_black_phrase_05_0812"
    INDEX 01 18:19:12
  TRACK 813 AUDIO
    TITLE "LR_black_phrase_05_0813"
    INDEX 01 18:20:12
  TRACK 814 AUDIO
    TITLE "LR_black_phrase_05_0814"
    INDEX 01 18:20:49
  TRACK 815 AUDIO
    TITLE "LR_black_phrase_05_0815"
    INDEX 01 18:23:29
  TRACK 816 AUDIO
    TITLE "LR_black_phrase_05_0816"
    INDEX 01 18:24:33
  TRACK 817 AUDIO
    TITLE "LR_black_phrase_05_0817"
    INDEX 01 18:26:20
  TRACK 818 AUDIO
    TITLE "LR_black_phrase_05_0818"
    INDEX 01 18:26:59
  TRACK 819 AUDIO
    TITLE "LR_black_phrase_05_0819"
    INDEX 01 18:28:31
  TRACK 820 AUDIO
    TITLE "LR_black_phrase_05_0820"
    INDEX 01 18:28:60
  TRACK 821 AUDIO
    TITLE "LR_black_phrase_05_0821"
    INDEX 01 18:30:31
  TRACK 822 AUDIO
    TITLE "LR_black_phrase_05_0822"
    INDEX 01 18:31:35
  TRACK 823 AUDIO
    TITLE "LR_black_phrase_05_0823"
    INDEX 01 18:32:54
  TRACK 824 AUDIO
    TITLE "LR_black_phrase_05_0824"
    INDEX 01 18:33:18
  TRACK 825 AUDIO
    TITLE "LR_black_phrase_05_0825"
    INDEX 01 18:35:44
  TRACK 826 AUDIO
    TITLE "LR_black_phrase_05_0826"
    INDEX 01 18:36:42
  TRACK 827 AUDIO
    TITLE "LR_black_phrase_05_0827"
    INDEX 01 18:38:21
  TRACK 828 AUDIO
    TITLE "LR_black_phrase_05_0828"
    INDEX 01 18:38:60
  TRACK 829 AUDIO
    TITLE "LR_black_phrase_05_0829"
    INDEX 01 18:41:16
  TRACK 830 AUDIO
    TITLE "LR_black_phrase_05_0830"
    INDEX 01 18:41:47
  TRACK 831 AUDIO
    TITLE "LR_black_phrase_05_0831"
    INDEX 01 18:44:04
  TRACK 832 AUDIO
    TITLE "LR_black_phrase_05_0832"
    INDEX 01 18:45:09
  TRACK 833 AUDIO
    TITLE "LR_black_phrase_05_0833"
    INDEX 01 18:46:23
  TRACK 834 AUDIO
    TITLE "LR_black_phrase_05_0834"
    INDEX 01 18:46:66
  TRACK 835 AUDIO
    TITLE "LR_black_phrase_05_0835"
    INDEX 01 18:50:40
  TRACK 836 AUDIO
    TITLE "LR_black_phrase_05_0836"
    INDEX 01 18:51:39
  TRACK 837 AUDIO
    TITLE "LR_black_phrase_05_0837"
    INDEX 01 18:53:48
  TRACK 838 AUDIO
    TITLE "LR_black_phrase_05_0838"
    INDEX 01 18:54:12
  TRACK 839 AUDIO
    TITLE "LR_black_phrase_05_0839"
    INDEX 01 18:56:45
  TRACK 840 AUDIO
    TITLE "LR_black_phrase_05_0840"
    INDEX 01 18:56:74
  TRACK 841 AUDIO
    TITLE "LR_black_phrase_05_0841"
    INDEX 01 18:59:31
  TRACK 842 AUDIO
    TITLE "LR_black_phrase_05_0842"
    INDEX 01 19:00:37
  TRACK 843 AUDIO
    TITLE "LR_black_phrase_05_0843"
    INDEX 01 19:01:46
  TRACK 844 AUDIO
    TITLE "LR_black_phrase_05_0844"
    INDEX 01 19:02:10
  TRACK 845 AUDIO
    TITLE "LR_black_phrase_05_0845"
    INDEX 01 19:03:33
  TRACK 846 AUDIO
    TITLE "LR_black_phrase_05_0846"
    INDEX 01 19:04:32
  TRACK 847 AUDIO
    TITLE "LR_black_phrase_05_0847"
    INDEX 01 19:06:16
  TRACK 848 AUDIO
    TITLE "LR_black_phrase_05_0848"
    INDEX 01 19:06:55
  TRACK 849 AUDIO
    TITLE "LR_black_phrase_05_0849"
    INDEX 01 19:08:44
  TRACK 850 AUDIO
    TITLE "LR_black_phrase_05_0850"
    INDEX 01 19:08:75
  TRACK 851 AUDIO
    TITLE "LR_black_phrase_05_0851"
    INDEX 01 19:10:66
  TRACK 852 AUDIO
    TITLE "LR_black_phrase_05_0852"
    INDEX 01 19:11:70
  TRACK 853 AUDIO
    TITLE "LR_black_phrase_05_0853"
    INDEX 01 19:13:21
  TRACK 854 AUDIO
    TITLE "LR_black_phrase_05_0854"
    INDEX 01 19:13:63
  TRACK 855 AUDIO
    TITLE "LR_black_phrase_05_0855"
    INDEX 01 19:15:24
  TRACK 856 AUDIO
    TITLE "LR_black_phrase_05_0856"
    INDEX 01 19:16:24
  TRACK 857 AUDIO
    TITLE "LR_black_phrase_05_0857"
    INDEX 01 19:19:28
  TRACK 858 AUDIO
    TITLE "LR_black_phrase_05_0858"
    INDEX 01 19:19:67
  TRACK 859 AUDIO
    TITLE "LR_black_phrase_05_0859"
    INDEX 01 19:22:69
  TRACK 860 AUDIO
    TITLE "LR_black_phrase_05_0860"
    INDEX 01 19:23:24
  TRACK 861 AUDIO
    TITLE "LR_black_phrase_05_0861"
    INDEX 01 19:26:28
  TRACK 862 AUDIO
    TITLE "LR_black_phrase_05_0862"
    INDEX 01 19:27:31
  TRACK 863 AUDIO
    TITLE "LR_black_phrase_05_0863"
    INDEX 01 19:28:49
  TRACK 864 AUDIO
    TITLE "LR_black_phrase_05_0864"
    INDEX 01 19:29:13
  TRACK 865 AUDIO
    TITLE "LR_black_phrase_05_0865"
    INDEX 01 19:31:19
  TRACK 866 AUDIO
    TITLE "LR_black_phrase_05_0866"
    INDEX 01 19:32:17
  TRACK 867 AUDIO
    TITLE "LR_black_phrase_05_0867"
    INDEX 01 19:33:65
  TRACK 868 AUDIO
    TITLE "LR_black_phrase_05_0868"
    INDEX 01 19:34:31
  TRACK 869 AUDIO
    TITLE "LR_black_phrase_05_0869"
    INDEX 01 19:36:30
  TRACK 870 AUDIO
    TITLE "LR_black_phrase_05_0870"
    INDEX 01 19:36:60
  TRACK 871 AUDIO
    TITLE "LR_black_phrase_05_0871"
    INDEX 01 19:38:59
  TRACK 872 AUDIO
    TITLE "LR_black_phrase_05_0872"
    INDEX 01 19:39:62
  TRACK 873 AUDIO
    TITLE "LR_black_phrase_05_0873"
    INDEX 01 19:41:02
  TRACK 874 AUDIO
    TITLE "LR_black_phrase_05_0874"
    INDEX 01 19:41:41
  TRACK 875 AUDIO
    TITLE "LR_black_phrase_05_0875"
    INDEX 01 19:43:44
  TRACK 876 AUDIO
    TITLE "LR_black_phrase_05_0876"
    INDEX 01 19:44:46
  TRACK 877 AUDIO
    TITLE "LR_black_phrase_05_0877"
    INDEX 01 19:46:27
  TRACK 878 AUDIO
    TITLE "LR_black_phrase_05_0878"
    INDEX 01 19:46:68
  TRACK 879 AUDIO
    TITLE "LR_black_phrase_05_0879"
    INDEX 01 19:49:15
  TRACK 880 AUDIO
    TITLE "LR_black_phrase_05_0880"
    INDEX 01 19:49:45
  TRACK 881 AUDIO
    TITLE "LR_black_phrase_05_0881"
    INDEX 01 19:51:67
  TRACK 882 AUDIO
    TITLE "LR_black_phrase_05_0882"
    INDEX 01 19:52:73
  TRACK 883 AUDIO
    TITLE "LR_black_phrase_05_0883"
    INDEX 01 19:53:74
  TRACK 884 AUDIO
    TITLE "LR_black_phrase_05_0884"
    INDEX 01 19:54:40
  TRACK 885 AUDIO
    TITLE "LR_black_phrase_05_0885"
    INDEX 01 19:56:41
  TRACK 886 AUDIO
    TITLE "LR_black_phrase_05_0886"
    INDEX 01 19:57:40
  TRACK 887 AUDIO
    TITLE "LR_black_phrase_05_0887"
    INDEX 01 19:58:75
  TRACK 888 AUDIO
    TITLE "LR_black_phrase_05_0888"
    INDEX 01 19:59:37
  TRACK 889 AUDIO
    TITLE "LR_black_phrase_05_0889"
    INDEX 01 20:01:19
  TRACK 890 AUDIO
    TITLE "LR_black_phrase_05_0890"
    INDEX 01 20:01:50
  TRACK 891 AUDIO
    TITLE "LR_black_phrase_05_0891"
    INDEX 01 20:03:31
  TRACK 892 AUDIO
    TITLE "LR_black_phrase_05_0892"
    INDEX 01 20:04:37
  TRACK 893 AUDIO
    TITLE "LR_black_phrase_05_0893"
    INDEX 01 20:05:50
  TRACK 894 AUDIO
    TITLE "LR_black_phrase_05_0894"
    INDEX 01 20:06:14
  TRACK 895 AUDIO
    TITLE "LR_black_phrase_05_0895"
    INDEX 01 20:07:39
  TRACK 896 AUDIO
    TITLE "LR_black_phrase_05_0896"
    INDEX 01 20:08:38
  TRACK 897 AUDIO
    TITLE "LR_black_phrase_05_0897"
    INDEX 01 20:10:14
  TRACK 898 AUDIO
    TITLE "LR_black_phrase_05_0898"
    INDEX 01 20:10:55
  TRACK 899 AUDIO
    TITLE "LR_black_phrase_05_0899"
    INDEX 01 20:12:36
  TRACK 900 AUDIO
    TITLE "LR_black_phrase_05_0900"
    INDEX 01 20:12:65
  TRACK 901 AUDIO
    TITLE "LR_black_phrase_05_0901"
    INDEX 01 20:14:45
  TRACK 902 AUDIO
    TITLE "LR_black_phrase_05_0902"
    INDEX 01 20:15:44
  TRACK 903 AUDIO
    TITLE "LR_black_phrase_05_0903"
    INDEX 01 20:17:04
  TRACK 904 AUDIO
    TITLE "LR_black_phrase_05_0904"
    INDEX 01 20:17:39
  TRACK 905 AUDIO
    TITLE "LR_black_phrase_05_0905"
    INDEX 01 20:19:03
  TRACK 906 AUDIO
    TITLE "LR_black_phrase_05_0906"
    INDEX 01 20:20:04
  TRACK 907 AUDIO
    TITLE "LR_black_phrase_05_0907"
    INDEX 01 20:22:40
  TRACK 908 AUDIO
    TITLE "LR_black_phrase_05_0908"
    INDEX 01 20:22:74
  TRACK 909 AUDIO
    TITLE "LR_black_phrase_05_0909"
    INDEX 01 20:25:52
  TRACK 910 AUDIO
    TITLE "LR_black_phrase_05_0910"
    INDEX 01 20:25:72
  TRACK 911 AUDIO
    TITLE "LR_black_phrase_05_0911"
    INDEX 01 20:28:49
  TRACK 912 AUDIO
    TITLE "LR_black_phrase_05_0912"
    INDEX 01 20:29:44
  TRACK 913 AUDIO
    TITLE "LR_black_phrase_05_0913"
    INDEX 01 20:30:52
  TRACK 914 AUDIO
    TITLE "LR_black_phrase_05_0914"
    INDEX 01 20:31:12
  TRACK 915 AUDIO
    TITLE "LR_black_phrase_05_0915"
    INDEX 01 20:32:43
  TRACK 916 AUDIO
    TITLE "LR_black_phrase_05_0916"
    INDEX 01 20:33:50
  TRACK 917 AUDIO
    TITLE "LR_black_phrase_05_0917"
    INDEX 01 20:35:72
  TRACK 918 AUDIO
    TITLE "LR_black_phrase_05_0918"
    INDEX 01 20:36:33
  TRACK 919 AUDIO
    TITLE "LR_black_phrase_05_0919"
    INDEX 01 20:38:35
  TRACK 920 AUDIO
    TITLE "LR_black_phrase_05_0920"
    INDEX 01 20:38:55
  TRACK 921 AUDIO
    TITLE "LR_black_phrase_05_0921"
    INDEX 01 20:40:58
  TRACK 922 AUDIO
    TITLE "LR_black_phrase_05_0922"
    INDEX 01 20:41:53
  TRACK 923 AUDIO
    TITLE "LR_black_phrase_05_0923"
    INDEX 01 20:43:09
  TRACK 924 AUDIO
    TITLE "LR_black_phrase_05_0924"
    INDEX 01 20:43:44
  TRACK 925 AUDIO
    TITLE "LR_black_phrase_05_0925"
    INDEX 01 20:45:02
  TRACK 926 AUDIO
    TITLE "LR_black_phrase_05_0926"
    INDEX 01 20:45:75
  TRACK 927 AUDIO
    TITLE "LR_black_phrase_05_0927"
    INDEX 01 20:48:32
  TRACK 928 AUDIO
    TITLE "LR_black_phrase_05_0928"
    INDEX 01 20:48:65
  TRACK 929 AUDIO
    TITLE "LR_black_phrase_05_0929"
    INDEX 01 20:50:72
  TRACK 930 AUDIO
    TITLE "LR_black_phrase_05_0930"
    INDEX 01 20:51:18
  TRACK 931 AUDIO
    TITLE "LR_black_phrase_05_0931"
    INDEX 01 20:53:25
  TRACK 932 AUDIO
    TITLE "LR_black_phrase_05_0932"
    INDEX 01 20:54:19
  TRACK 933 AUDIO
    TITLE "LR_black_phrase_05_0933"
    INDEX 01 20:55:32
  TRACK 934 AUDIO
    TITLE "LR_black_phrase_05_0934"
    INDEX 01 20:55:69
  TRACK 935 AUDIO
    TITLE "LR_black_phrase_05_0935"
    INDEX 01 20:58:03
  TRACK 936 AUDIO
    TITLE "LR_black_phrase_05_0936"
    INDEX 01 20:59:02
  TRACK 937 AUDIO
    TITLE "LR_black_phrase_05_0937"
    INDEX 01 21:01:15
  TRACK 938 AUDIO
    TITLE "LR_black_phrase_05_0938"
    INDEX 01 21:01:50
  TRACK 939 AUDIO
    TITLE "LR_black_phrase_05_0939"
    INDEX 01 21:03:63
  TRACK 940 AUDIO
    TITLE "LR_black_phrase_05_0940"
    INDEX 01 21:04:09
  TRACK 941 AUDIO
    TITLE "LR_black_phrase_05_0941"
    INDEX 01 21:06:24
  TRACK 942 AUDIO
    TITLE "LR_black_phrase_05_0942"
    INDEX 01 21:07:19
  TRACK 943 AUDIO
    TITLE "LR_black_phrase_05_0943"
    INDEX 01 21:08:40
  TRACK 944 AUDIO
    TITLE "LR_black_phrase_05_0944"
    INDEX 01 21:09:05
  TRACK 945 AUDIO
    TITLE "LR_black_phrase_05_0945"
    INDEX 01 21:11:58
  TRACK 946 AUDIO
    TITLE "LR_black_phrase_05_0946"
    INDEX 01 21:12:60
  TRACK 947 AUDIO
    TITLE "LR_black_phrase_05_0947"
    INDEX 01 21:15:15
  TRACK 948 AUDIO
    TITLE "LR_black_phrase_05_0948"
    INDEX 01 21:15:50
  TRACK 949 AUDIO
    TITLE "LR_black_phrase_05_0949"
    INDEX 01 21:17:49
  TRACK 950 AUDIO
    TITLE "LR_black_phrase_05_0950"
    INDEX 01 21:17:69
  TRACK 951 AUDIO
    TITLE "LR_black_phrase_05_0951"
    INDEX 01 21:19:70
  TRACK 952 AUDIO
    TITLE "LR_black_phrase_05_0952"
    INDEX 01 21:20:65
  TRACK 953 AUDIO
    TITLE "LR_black_phrase_05_0953"
    INDEX 01 21:22:01
  TRACK 954 AUDIO
    TITLE "LR_black_phrase_05_0954"
    INDEX 01 21:22:42
  TRACK 955 AUDIO
    TITLE "LR_black_phrase_05_0955"
    INDEX 01 21:24:73
  TRACK 956 AUDIO
    TITLE "LR_black_phrase_05_0956"
    INDEX 01 21:25:74
  TRACK 957 AUDIO
    TITLE "LR_black_phrase_05_0957"
    INDEX 01 21:27:38
  TRACK 958 AUDIO
    TITLE "LR_black_phrase_05_0958"
    INDEX 01 21:27:73
  TRACK 959 AUDIO
    TITLE "LR_black_phrase_05_0959"
    INDEX 01 21:29:50
  TRACK 960 AUDIO
    TITLE "LR_black_phrase_05_0960"
    INDEX 01 21:29:70
  TRACK 961 AUDIO
    TITLE "LR_black_phrase_05_0961"
    INDEX 01 21:31:47
  TRACK 962 AUDIO
    TITLE "LR_black_phrase_05_0962"
    INDEX 01 21:32:43
  TRACK 963 AUDIO
    TITLE "LR_black_phrase_05_0963"
    INDEX 01 21:33:44
  TRACK 964 AUDIO
    TITLE "LR_black_phrase_05_0964"
    INDEX 01 21:34:05
  TRACK 965 AUDIO
    TITLE "LR_black_phrase_05_0965"
    INDEX 01 21:36:45
  TRACK 966 AUDIO
    TITLE "LR_black_phrase_05_0966"
    INDEX 01 21:37:44
  TRACK 967 AUDIO
    TITLE "LR_black_phrase_05_0967"
    INDEX 01 21:40:09
  TRACK 968 AUDIO
    TITLE "LR_black_phrase_05_0968"
    INDEX 01 21:40:44
  TRACK 969 AUDIO
    TITLE "LR_black_phrase_05_0969"
    INDEX 01 21:43:11
  TRACK 970 AUDIO
    TITLE "LR_black_phrase_05_0970"
    INDEX 01 21:43:31
  TRACK 971 AUDIO
    TITLE "LR_black_phrase_05_0971"
    INDEX 01 21:45:75
  TRACK 972 AUDIO
    TITLE "LR_black_phrase_05_0972"
    INDEX 01 21:46:68
  TRACK 973 AUDIO
    TITLE "LR_black_phrase_05_0973"
    INDEX 01 21:48:44
  TRACK 974 AUDIO
    TITLE "LR_black_phrase_05_0974"
    INDEX 01 21:49:02
  TRACK 975 AUDIO
    TITLE "LR_black_phrase_05_0975"
    INDEX 01 21:51:60
  TRACK 976 AUDIO
    TITLE "LR_black_phrase_05_0976"
    INDEX 01 21:52:59
  TRACK 977 AUDIO
    TITLE "LR_black_phrase_05_0977"
    INDEX 01 21:55:24
  TRACK 978 AUDIO
    TITLE "LR_black_phrase_05_0978"
    INDEX 01 21:55:60
  TRACK 979 AUDIO
    TITLE "LR_black_phrase_05_0979"
    INDEX 01 21:58:21
  TRACK 980 AUDIO
    TITLE "LR_black_phrase_05_0980"
    INDEX 01 21:58:42
  TRACK 981 AUDIO
    TITLE "LR_black_phrase_05_0981"
    INDEX 01 22:01:03
  TRACK 982 AUDIO
    TITLE "LR_black_phrase_05_0982"
    INDEX 01 22:01:74
  TRACK 983 AUDIO
    TITLE "LR_black_phrase_05_0983"
    INDEX 01 22:03:08
  TRACK 984 AUDIO
    TITLE "LR_black_phrase_05_0984"
    INDEX 01 22:03:41
  TRACK 985 AUDIO
    TITLE "LR_black_phrase_05_0985"
    INDEX 01 22:05:68
  TRACK 986 AUDIO
    TITLE "LR_black_phrase_05_0986"
    INDEX 01 22:06:67
  TRACK 987 AUDIO
    TITLE "LR_black_phrase_05_0987"
    INDEX 01 22:08:60
  TRACK 988 AUDIO
    TITLE "LR_black_phrase_05_0988"
    INDEX 01 22:09:19
  TRACK 989 AUDIO
    TITLE "LR_black_phrase_05_0989"
    INDEX 01 22:11:08
  TRACK 990 AUDIO
    TITLE "LR_black_phrase_05_0990"
    INDEX 01 22:11:31
  TRACK 991 AUDIO
    TITLE "LR_black_phrase_05_0991"
    INDEX 01 22:13:20
  TRACK 992 AUDIO
    TITLE "LR_black_phrase_05_0992"
    INDEX 01 22:14:20
  TRACK 993 AUDIO
    TITLE "LR_black_phrase_05_0993"
    INDEX 01 22:15:43
  TRACK 994 AUDIO
    TITLE "LR_black_phrase_05_0994"
    INDEX 01 22:15:72
  TRACK 995 AUDIO
    TITLE "LR_black_phrase_05_0995"
    INDEX 01 22:19:33
  TRACK 996 AUDIO
    TITLE "LR_black_phrase_05_0996"
    INDEX 01 22:20:32
  TRACK 997 AUDIO
    TITLE "LR_black_phrase_05_0997"
    INDEX 01 22:22:33
  TRACK 998 AUDIO
    TITLE "LR_black_phrase_05_0998"
    INDEX 01 22:22:66
  TRACK 999 AUDIO
    TITLE "LR_black_phrase_05_0999"
    INDEX 01 22:24:67
  TRACK 1000 AUDIO
    TITLE "LR_black_phrase_05_1000"
    INDEX 01 22:25:12
  TRACK 1001 AUDIO
    TITLE "LR_black_phrase_05_1001"
    INDEX 01 22:27:09
